<svg width="12" height="12" viewBox="0 0 12 12" fill="none" xmlns="http://www.w3.org/2000/svg">
<path d="M11.6564 5.40871L6.31477 0.404757C6.23274 0.32795 6.12456 0.285156 6.01218 0.285156C5.8998 0.285156 5.79162 0.32795 5.70958 0.404757L0.371184 5.40871C0.331269 5.44671 0.303587 5.4958 0.29169 5.54962C0.279793 5.60343 0.284211 5.65945 0.304385 5.71074C0.32456 5.76203 0.359581 5.80621 0.404953 5.8375C0.450326 5.86879 0.503988 5.88586 0.559101 5.88649H1.4V11.1135C1.4 11.2148 1.44026 11.3119 1.51194 11.3836C1.58362 11.4553 1.68086 11.4956 1.78223 11.4956H4.01188C4.15126 11.4956 4.28493 11.4402 4.38349 11.3416C4.48205 11.2431 4.53742 11.1095 4.53742 10.9701V9.00793C4.52967 8.65299 4.647 8.30668 4.86885 8.02951C5.09071 7.75233 5.40296 7.56202 5.75099 7.49185C5.96043 7.45612 6.17517 7.46657 6.38015 7.52248C6.58514 7.5784 6.77544 7.67838 6.93774 7.8155C7.10004 7.95262 7.23043 8.12353 7.3198 8.3163C7.40916 8.50907 7.45533 8.71909 7.45508 8.93157V10.9701C7.45508 11.0394 7.46878 11.108 7.49539 11.1719C7.522 11.2359 7.56101 11.294 7.61015 11.3429C7.65929 11.3917 7.7176 11.4303 7.78173 11.4566C7.84586 11.4828 7.91454 11.496 7.98382 11.4956H10.2135C10.3148 11.4956 10.4121 11.4553 10.4837 11.3836C10.5554 11.3119 10.5957 11.2148 10.5957 11.1135V5.87373H11.4398C11.4949 5.87311 11.5486 5.85603 11.5939 5.82474C11.6393 5.79345 11.6743 5.74943 11.6945 5.69814C11.7147 5.64685 11.7191 5.59068 11.7072 5.53686C11.6953 5.48305 11.6676 5.43396 11.6277 5.39595" fill="#45403E"/>
</svg>
