<svg width="226" height="180" viewBox="0 0 226 180" fill="none" xmlns="http://www.w3.org/2000/svg">
    <path d="M142.458 117H124V7.6294e-06H142.458V48.5L207.809 48.5V0L226 7.6294e-06V117L207.809 117V68.5L142.458 68.5V117Z" fill="#14418A"/>
    <path fill-rule="evenodd" clip-rule="evenodd" d="M0 117H18V48L0 28.9441V117ZM0 21.1379V0H1.19515L56 52L109.805 0H111V117H91V43L56 76H54.2073L18 41L0 21.1379Z" fill="#14418A"/>
    <path d="M23.9846 142.47C22.7291 142.533 22.2343 142.572 21.392 142.679C19.1995 142.953 17.2596 143.472 15.7672 144.189C14.4564 144.818 13.6062 145.53 13.2193 146.328C13.014 146.75 13.014 146.743 13.0035 147.945C12.9929 149.061 13.0008 149.205 13.1061 149.507C13.2719 149.99 13.6799 150.519 14.23 150.965C15.5013 151.998 17.7571 152.838 20.4366 153.276C23.6372 153.803 27.2906 153.748 30.3623 153.133C32.5653 152.689 34.3288 152.011 35.558 151.127C35.6791 151.041 35.9265 150.825 36.1108 150.645C36.6004 150.165 36.8583 149.74 36.9662 149.223C37.0241 148.941 37.0031 146.941 36.9373 146.719C36.7872 146.208 36.4187 145.684 35.8923 145.235C34.1999 143.787 30.9624 142.804 26.9721 142.52C26.4457 142.481 24.4189 142.449 23.9846 142.47Z" fill="#14418A"/>
    <path d="M13.0035 152.601C13.0088 154.012 13.0114 154.025 13.072 154.205C13.2246 154.661 13.451 155.008 13.8642 155.42C15.1934 156.748 17.9624 157.776 21.3789 158.206C22.5291 158.352 23.1872 158.394 24.6111 158.409C25.9693 158.425 26.6326 158.404 27.6433 158.31C30.3228 158.068 32.6154 157.494 34.3447 156.638C35.7766 155.929 36.6109 155.141 36.9242 154.205C36.9847 154.025 36.9873 154.012 36.9926 152.601C36.9979 151.284 36.9952 151.192 36.9584 151.362C36.9057 151.61 36.6925 152.032 36.5057 152.264C35.9003 153.018 34.8737 153.618 33.3287 154.127C31.1414 154.846 28.2171 155.235 24.9981 155.235C19.847 155.235 15.554 154.233 13.8353 152.635C13.4326 152.262 13.1246 151.769 13.0377 151.362C13.0009 151.192 12.9983 151.284 13.0035 152.601Z" fill="#14418A"/>
    <path d="M13.0065 157.387C13.0091 158.639 13.017 158.814 13.0565 158.952C13.5013 160.465 15.6149 161.771 18.8761 162.551C20.1448 162.854 21.5161 163.055 23.1428 163.17C23.7718 163.214 26.2144 163.214 26.854 163.17C31.1075 162.875 34.5214 161.795 36.1059 160.243C36.556 159.805 36.8192 159.385 36.9377 158.918C37.0008 158.673 37.0008 158.665 36.9982 157.324C36.9956 156.484 36.9877 156.023 36.9719 156.093C36.7429 157.251 35.4584 158.235 33.2369 158.952C30.2942 159.899 25.8486 160.256 21.6767 159.875C17.5364 159.5 14.5147 158.441 13.4329 156.983C13.2302 156.714 13.0855 156.393 13.0249 156.093C13.0091 156.023 13.0012 156.511 13.0065 157.387Z" fill="#14418A"/>
    <path d="M13.0057 162.186C13.011 163.769 13.0057 163.704 13.2189 164.142C13.5927 164.914 14.4034 165.608 15.6536 166.229C17.5435 167.168 20.1572 167.763 23.2736 167.969C23.9263 168.01 26.0952 168.01 26.7348 167.969C29.8854 167.757 32.4044 167.181 34.3416 166.226C35.5866 165.613 36.3999 164.917 36.7763 164.145C36.9895 163.704 36.9842 163.769 36.9895 162.186C36.9948 160.932 36.9921 160.796 36.9606 160.939C36.6921 162.131 35.2444 163.167 32.886 163.853C31.2989 164.317 29.5591 164.596 27.2612 164.758C26.6321 164.802 24.1132 164.818 23.3499 164.784C17.4961 164.518 13.5005 163.026 13.0347 160.937C13.0031 160.799 12.9978 160.952 13.0057 162.186Z" fill="#14418A"/>
    <path d="M24.8287 129.09C24.158 129.336 23.6865 129.821 23.4674 130.485C23.3744 130.77 23.3611 131.155 23.381 133.367L23.401 135.923L23.567 136.255C23.7728 136.68 24.1713 137.079 24.5963 137.285C25.0744 137.517 25.9111 137.517 26.3892 137.285C26.8142 137.079 27.2127 136.68 27.4185 136.255L27.5846 135.923V133.234V130.545L27.4185 130.213C27.206 129.788 26.8076 129.389 26.3892 129.19C25.9576 128.984 25.2471 128.938 24.8287 129.09Z" fill="#14418A"/>
    <path d="M8.31342 135.943C7.03178 136.402 6.48061 137.77 7.10483 138.945C7.36381 139.43 10.5513 142.63 11.0162 142.87C11.4611 143.095 12.2513 143.122 12.7626 142.929C13.274 142.737 13.7455 142.265 13.938 141.754C14.1306 141.243 14.104 140.452 13.8783 140.007C13.7787 139.815 13.1146 139.098 12.0255 138.002C10.113 136.076 9.88061 135.904 9.1103 135.85C8.77162 135.83 8.57241 135.85 8.31342 135.943Z" fill="#14418A"/>
    <path d="M41.5234 135.884C40.9921 136.016 40.6203 136.329 38.9535 138.009C37.8711 139.098 37.207 139.815 37.1074 140.007C36.8816 140.452 36.855 141.243 37.0476 141.754C37.2402 142.265 37.7117 142.737 38.223 142.929C38.7343 143.122 39.5246 143.095 39.9695 142.87C40.1621 142.77 40.8793 142.106 41.975 141.017C43.9937 139.018 44.1132 138.839 44.1199 137.982C44.1199 137.351 43.9273 136.866 43.5222 136.455C43.0441 135.983 42.1476 135.724 41.5234 135.884Z" fill="#14418A"/>
    <path d="M1.4538 152.465C0.517469 152.804 -0.0669062 153.68 0.00614066 154.637C0.0725469 155.4 0.53075 156.071 1.22138 156.41L1.55341 156.576H4.24286H6.93231L7.26434 156.41C7.68934 156.204 8.08778 155.805 8.29364 155.38C8.52606 154.902 8.52606 154.066 8.29364 153.588C8.08778 153.163 7.68934 152.764 7.26434 152.558L6.93231 152.392L4.34247 152.379C2.11786 152.366 1.71278 152.379 1.4538 152.465Z" fill="#14418A"/>
    <path d="M43.9538 152.465C43.0175 152.804 42.4331 153.68 42.5061 154.637C42.5725 155.4 43.0308 156.071 43.7214 156.41L44.0534 156.576H46.7429H49.4323L49.7643 156.41C50.1893 156.204 50.5878 155.805 50.7936 155.38C50.9265 155.108 50.9597 154.949 50.9597 154.484C50.9597 154.019 50.9265 153.86 50.7936 153.588C50.5878 153.163 50.1893 152.764 49.7643 152.558L49.4323 152.392L46.8425 152.379C44.6179 152.366 44.2128 152.379 43.9538 152.465Z" fill="#14418A"/>
    <path d="M11.2622 165.999C10.8305 166.158 10.5649 166.384 8.88484 168.077C6.97234 169.997 6.87273 170.136 6.87273 170.986C6.86609 171.617 7.05203 172.102 7.46375 172.513C7.87546 172.918 8.36023 173.111 8.99109 173.111C9.84773 173.104 10.027 172.985 12.0259 170.966C13.1149 169.87 13.779 169.153 13.8786 168.961C14.1044 168.516 14.1309 167.725 13.9384 167.214C13.7458 166.703 13.2743 166.231 12.7762 166.045C12.3446 165.886 11.6473 165.866 11.2622 165.999Z" fill="#14418A"/>
    <path d="M38.1898 166.045C37.7117 166.231 37.2336 166.723 37.0476 167.214C36.855 167.725 36.8816 168.516 37.1074 168.961C37.207 169.153 37.8711 169.87 38.9601 170.966C40.9589 172.985 41.1382 173.104 41.9949 173.111C42.6257 173.111 43.1105 172.918 43.5222 172.513C43.9273 172.102 44.1199 171.617 44.1199 170.986C44.1132 170.129 43.9937 169.95 41.975 167.951C40.8859 166.862 40.1621 166.198 39.9695 166.098C39.5378 165.879 38.6746 165.853 38.1898 166.045Z" fill="#14418A"/>
    <path d="M24.8287 171.59C24.158 171.836 23.6865 172.321 23.4674 172.985C23.3744 173.27 23.3611 173.655 23.381 175.867L23.401 178.423L23.567 178.755C23.7728 179.18 24.1713 179.579 24.5963 179.785C25.0744 180.017 25.9111 180.017 26.3892 179.785C26.8142 179.579 27.2127 179.18 27.4185 178.755L27.5846 178.423V175.734V173.045L27.4185 172.713C27.206 172.288 26.8076 171.889 26.3892 171.69C25.9576 171.484 25.2471 171.438 24.8287 171.59Z" fill="#14418A"/>
    <path d="M81.104 167.432C80.564 167.432 80.042 167.414 79.538 167.378C79.034 167.354 78.5 167.294 77.936 167.198C77.384 167.114 76.76 166.988 76.064 166.82C76.292 166.4 76.562 166.028 76.874 165.704C77.198 165.368 77.57 165.116 77.99 164.948C78.422 164.78 78.908 164.72 79.448 164.768C79.832 164.804 80.126 164.828 80.33 164.84C80.534 164.84 80.78 164.84 81.068 164.84C82.22 164.84 83.294 164.552 84.29 163.976C85.286 163.4 86.156 162.608 86.9 161.6C87.644 160.592 88.226 159.428 88.646 158.108C89.066 156.776 89.276 155.36 89.276 153.86C89.276 151.544 88.88 149.576 88.088 147.956C87.308 146.336 86.132 145.106 84.56 144.266C82.988 143.414 81.02 142.988 78.656 142.988C77.936 142.988 77.228 143.012 76.532 143.06C75.836 143.108 75.2 143.168 74.624 143.24V167H71.204V141.224C72.344 140.948 73.61 140.738 75.002 140.594C76.394 140.438 77.612 140.36 78.656 140.36C81.704 140.36 84.29 140.9 86.414 141.98C88.55 143.06 90.17 144.608 91.274 146.624C92.39 148.64 92.948 151.052 92.948 153.86C92.948 155.816 92.636 157.622 92.012 159.278C91.388 160.934 90.524 162.374 89.42 163.598C88.328 164.81 87.068 165.752 85.64 166.424C84.224 167.096 82.712 167.432 81.104 167.432ZM101.188 167V140.828H104.5V167H101.188ZM126.767 167.432C124.919 167.432 123.179 167.126 121.547 166.514C119.927 165.902 118.493 165.014 117.245 163.85C116.009 162.686 115.037 161.27 114.329 159.602C113.621 157.934 113.267 156.044 113.267 153.932C113.267 151.904 113.621 150.062 114.329 148.406C115.037 146.738 116.009 145.304 117.245 144.104C118.493 142.904 119.927 141.98 121.547 141.332C123.179 140.684 124.919 140.36 126.767 140.36C127.799 140.36 128.927 140.474 130.151 140.702C131.387 140.93 132.635 141.344 133.895 141.944L132.959 144.284C131.687 143.72 130.541 143.366 129.521 143.222C128.513 143.066 127.595 142.988 126.767 142.988C125.531 142.988 124.325 143.216 123.149 143.672C121.973 144.116 120.917 144.794 119.981 145.706C119.057 146.606 118.319 147.74 117.767 149.108C117.215 150.476 116.939 152.084 116.939 153.932C116.939 155.768 117.215 157.37 117.767 158.738C118.319 160.106 119.057 161.24 119.981 162.14C120.917 163.04 121.973 163.718 123.149 164.174C124.325 164.618 125.531 164.84 126.767 164.84C127.295 164.84 127.901 164.804 128.585 164.732C129.269 164.648 130.007 164.48 130.799 164.228V154.868H134.111V165.668C133.247 166.124 132.377 166.484 131.501 166.748C130.637 167 129.803 167.174 128.999 167.27C128.195 167.378 127.451 167.432 126.767 167.432ZM142.734 167V140.828H146.046V167H142.734ZM161.545 167V143.42H153.913V140.828H172.669V143.42H165.001V167H161.545ZM178.715 167L188.147 140.828H191.495L200.927 167H197.255L189.947 145.904L189.695 144.86L189.443 145.904L185.411 157.46L185.015 158.216L185.447 158.144H190.307C190.883 158.144 191.363 158.264 191.747 158.504C192.143 158.744 192.467 159.062 192.719 159.458C192.983 159.854 193.199 160.28 193.367 160.736H184.295L182.135 167H178.715ZM209.694 167V140.828H213.15V164.372H224.094L224.058 167H209.694Z" fill="#1D1D1D"/>
    </svg>
    