<svg width="79" height="44" viewBox="0 0 79 44" fill="none" xmlns="http://www.w3.org/2000/svg">
<path d="M51.5185 39.2857H47.0811V0H51.5185V18.9173H74.1346V0H78.5721V39.2857H74.1346V23.4553H51.5185V39.2857Z" fill="#FF4E16"/>
<path fill-rule="evenodd" clip-rule="evenodd" d="M7.85742 39.2857H11.972V14.202L7.85742 9.1539V39.2857ZM7.85742 6.36872V0H8.23148L25.2277 20.5695L42.2239 0H42.598V39.2857H38.4833V11.4333L25.5082 27.252H24.9472L13.1806 12.9067V12.8995L7.85742 6.36872Z" fill="#FF4E16"/>
<path d="M12.5717 27.5L7.85742 21.2143V40.0714H12.5717V33.7857V27.5Z" fill="#FDFDFD"/>
<path d="M3.22565 37.756C2.35032 37.2715 1.66216 36.8751 0.957493 36.5063C0.647927 36.3902 0.386308 36.1736 0.214601 35.8911C0.0428948 35.6085 -0.0289487 35.2765 0.0105936 34.9483C0.120698 34.1831 0.66021 33.8473 1.36488 33.7151C4.37074 33.0765 7.37109 32.4159 10.3769 31.7718C11.6872 31.491 12.502 32.2783 12.2267 33.5995C11.5881 36.6549 10.922 39.6993 10.2778 42.7547C10.2388 43.0605 10.1016 43.3454 9.88696 43.5667C9.6723 43.788 9.39169 43.9338 9.0872 43.9822C8.78271 44.0305 8.47075 43.9789 8.19807 43.835C7.9254 43.6912 7.70671 43.4628 7.57478 43.1841C7.24997 42.6336 6.90865 42.0501 6.62237 41.461C6.3361 40.8719 6.07185 40.9105 5.69199 41.3509C5.14147 41.9014 4.59094 42.4519 4.04042 43.0025C3.91126 43.1573 3.74962 43.282 3.56697 43.3675C3.38431 43.453 3.1851 43.4973 2.98342 43.4973C2.78174 43.4973 2.58252 43.453 2.39986 43.3675C2.21721 43.282 2.05558 43.1573 1.92641 43.0025C1.6016 42.6942 1.28781 42.3804 0.979514 42.0556C0.822094 41.9286 0.695097 41.768 0.607849 41.5856C0.5206 41.4032 0.475314 41.2035 0.475314 41.0013C0.475314 40.7991 0.5206 40.5994 0.607849 40.417C0.695097 40.2346 0.822094 40.074 0.979514 39.9471C1.68969 39.2369 2.39986 38.5652 3.22565 37.756ZM6.30307 39.6773C6.70646 39.9416 7.07619 40.254 7.40412 40.6077C7.806 41.1582 8.07025 41.7913 8.42258 42.3749C8.55511 42.5524 8.71062 42.7116 8.88502 42.8483C9.02061 42.6814 9.13183 42.496 9.21534 42.2978C9.85945 39.358 10.476 36.4182 11.1312 33.4894C11.2633 32.8894 11.0706 32.7517 10.5366 32.8728C7.55276 33.5224 4.56892 34.1666 1.58509 34.8272C1.42528 34.8955 1.27822 34.9904 1.15018 35.108C1.26028 35.2456 1.33735 35.4273 1.47498 35.5098C2.10258 35.8787 2.7577 36.2035 3.3853 36.5779C3.57746 36.6784 3.74326 36.8228 3.86928 36.9993C3.99531 37.1758 4.07801 37.3795 4.11071 37.5939C4.1434 37.8083 4.12517 38.0274 4.05749 38.2334C3.98981 38.4395 3.87458 38.6267 3.72112 38.7799C3.34676 39.1983 2.91735 39.5727 2.53199 39.9856C1.37039 41.2077 1.29331 40.7123 2.59255 42.0776C2.90084 42.4024 3.14307 42.3418 3.40182 42.0445C3.95234 41.4665 4.50286 40.8829 5.10844 40.3544C5.48547 40.0933 5.8853 39.8666 6.30307 39.6773V39.6773Z" fill="#FE330A"/>
<path d="M9.72723 29.8777C9.56137 29.784 9.41247 29.663 9.28681 29.5199C8.86291 28.8978 8.48305 28.2537 8.07566 27.6206C7.86096 27.2792 7.79489 26.8773 8.18576 26.7232C8.34117 26.7016 8.4995 26.719 8.64652 26.7738C8.79355 26.8286 8.92466 26.919 9.02807 27.037C9.47614 27.6399 9.88264 28.2726 10.2447 28.9308C10.3147 29.0214 10.3568 29.1304 10.3658 29.2445C10.3748 29.3586 10.3503 29.4729 10.2954 29.5734C10.2405 29.6738 10.1576 29.7561 10.0566 29.8101C9.95574 29.8642 9.84127 29.8877 9.72723 29.8777V29.8777Z" fill="#FE330A"/>
<path d="M18.2652 35.0806C18.2738 35.1765 18.2571 35.273 18.2168 35.3605C18.1765 35.448 18.1139 35.5233 18.0353 35.579C17.9568 35.6348 17.865 35.6689 17.7691 35.678C17.6732 35.6872 17.5766 35.671 17.4889 35.6311C16.7132 35.3554 15.9525 35.0393 15.2098 34.6842C15.0226 34.5851 14.973 34.2108 14.8574 33.963C15.1162 33.8694 15.4079 33.6382 15.6226 33.7043C16.3824 33.941 17.1091 34.2548 17.8247 34.5796C18.045 34.6677 18.2541 34.7778 18.4633 34.8769L18.2652 35.0806Z" fill="#FE330A"/>
<path d="M13.9166 30.7589C13.4046 30.7589 13.1018 30.2964 13.366 29.9331C13.9012 29.2237 14.4766 28.5454 15.0892 27.9017C15.2014 27.8433 15.326 27.8128 15.4525 27.8128C15.579 27.8128 15.7036 27.8433 15.8159 27.9017C15.8867 27.9935 15.9325 28.1021 15.9489 28.2169C15.9653 28.3317 15.9517 28.4488 15.9094 28.5568C15.3589 29.267 14.8084 29.9386 14.2138 30.6102C14.1261 30.6798 14.0249 30.7304 13.9166 30.7589V30.7589Z" fill="#FE330A"/>
</svg>
