<?xml version="1.0" standalone="no"?>
<!DOCTYPE svg PUBLIC "-//W3C//DTD SVG 20010904//EN"
 "http://www.w3.org/TR/2001/REC-SVG-20010904/DTD/svg10.dtd">
<svg version="1.0" xmlns="http://www.w3.org/2000/svg"
 width="700.000000pt" height="700.000000pt" viewBox="0 0 700.000000 700.000000"
 preserveAspectRatio="xMidYMid meet">
<metadata>
Created by potrace 1.14, written by Peter Selinger 2001-2017
</metadata>
<g transform="translate(0.000000,700.000000) scale(0.100000,-0.100000)"
fill="#000000" stroke="none">
<path d="M6 6343 c-3 -4 -6 -153 -6 -332 0 -325 0 -326 23 -351 12 -14 99
-110 192 -215 93 -104 172 -192 175 -195 3 -3 51 -54 105 -115 55 -60 103
-112 106 -115 4 -3 144 -138 310 -301 167 -163 347 -338 399 -388 52 -51 156
-153 231 -227 135 -132 160 -149 196 -126 9 6 152 141 383 362 20 19 110 105
200 190 90 85 211 201 269 256 177 169 214 204 221 204 3 0 6 -507 5 -1127 0
-621 1 -1138 3 -1150 l4 -23 304 0 c167 0 305 3 305 8 1 4 2 823 3 1820 1
1641 0 1815 -15 1822 -17 10 -17 9 -561 -521 -172 -169 -356 -348 -408 -399
-52 -50 -233 -227 -402 -392 -169 -165 -310 -299 -315 -298 -8 0 -178 160
-418 391 -66 64 -164 158 -219 210 -54 52 -124 119 -156 149 -85 82 -406 389
-480 460 -36 34 -143 137 -239 228 -165 159 -201 188 -215 175z"/>
<path d="M3838 6330 c-3 -13 -2 -3611 1 -3632 1 -5 129 -8 286 -8 l285 0 0
758 0 758 1010 0 1010 0 0 -758 0 -758 282 2 282 3 1 1814 c0 1295 -3 1818
-11 1825 -7 8 -99 11 -280 11 l-269 0 -3 -758 -2 -757 -1010 0 -1010 0 0 755
c0 415 -3 756 -7 756 -5 1 -133 2 -285 3 -240 1 -277 -1 -280 -14z"/>
<path d="M0 4065 l0 -1375 278 2 277 3 1 1076 1 1076 -55 59 c-31 32 -115 122
-187 199 -72 77 -161 171 -196 209 -35 38 -76 82 -91 98 l-28 29 0 -1376z"/>
<path d="M724 2379 c-33 -9 -93 -69 -95 -94 -1 -8 -3 -19 -4 -25 -1 -5 -3 -19
-4 -29 0 -11 -13 -26 -28 -34 -16 -8 -99 -56 -186 -107 -144 -85 -159 -91
-175 -77 -31 28 -83 36 -132 20 -61 -20 -92 -61 -98 -127 -5 -60 22 -108 78
-141 l35 -20 -1 -212 c0 -117 -2 -214 -5 -215 -2 -2 -17 -10 -34 -18 -95 -49
-100 -195 -7 -252 45 -28 109 -27 155 1 l34 21 45 -28 c24 -15 53 -33 64 -40
10 -6 25 -15 32 -18 7 -4 61 -35 119 -70 l106 -63 2 -48 c1 -27 10 -61 19 -76
52 -79 169 -90 232 -21 26 27 46 89 40 121 -4 19 20 36 175 127 99 58 185 106
190 106 5 0 21 -7 34 -16 13 -9 45 -16 71 -16 136 0 194 181 85 262 -14 11
-30 23 -36 28 -6 5 -10 91 -9 222 0 177 3 215 15 218 8 3 28 20 46 39 55 58
56 137 2 198 -43 48 -126 62 -176 30 -12 -8 -27 -15 -32 -15 -13 0 -361 210
-362 218 -6 64 -37 120 -79 142 -27 15 -80 19 -116 9z m96 -89 c36 -36 24 -95
-24 -115 -25 -11 -35 -11 -57 1 -67 34 -44 134 31 134 17 0 39 -9 50 -20z
m-80 -195 c42 -9 89 3 119 31 14 13 28 24 31 24 3 0 81 -46 175 -103 l170
-102 2 -42 c1 -25 -4 -46 -12 -53 -8 -6 -89 -56 -182 -112 l-167 -100 -29 17
c-38 23 -103 23 -148 1 l-37 -17 -186 108 -185 108 -1 40 c0 43 -1 42 85 89
28 16 55 32 60 36 6 4 30 19 55 32 25 14 72 42 104 62 l59 35 28 -23 c16 -14
42 -27 59 -31z m-553 -143 c41 -33 31 -104 -17 -121 -39 -13 -71 -1 -90 33
-18 34 -4 76 30 93 33 17 51 16 77 -5z m1228 12 c26 -10 46 -59 36 -87 -12
-30 -47 -56 -69 -52 -9 2 -20 4 -24 4 -17 2 -48 47 -48 68 0 47 59 84 105 67z
m-970 -282 l180 -107 0 -40 c0 -57 20 -96 63 -127 l38 -27 0 -215 -1 -216 -30
-18 -30 -19 -135 80 c-74 44 -148 88 -165 97 -71 38 -75 43 -75 85 0 48 -29
100 -70 123 -36 21 -36 24 -32 272 l3 185 27 17 c15 9 32 16 37 16 6 0 91 -48
190 -106z m899 75 c3 3 6 -93 6 -215 l0 -221 -29 -16 c-49 -25 -84 -79 -85
-132 l-1 -47 -95 -56 c-52 -31 -133 -79 -180 -107 l-84 -50 -31 18 -30 19 -1
216 -1 215 33 22 c42 27 73 87 69 132 -3 31 1 35 69 75 39 23 122 72 185 110
l115 69 27 -19 c14 -11 29 -17 33 -13z m-524 -179 c28 -30 27 -82 -2 -102 -50
-35 -118 -8 -118 46 0 67 77 102 120 56z m-625 -350 c42 -52 10 -128 -53 -128
-30 0 -72 42 -72 73 0 26 25 61 50 69 13 4 68 -6 75 -14z m1245 -15 c35 -44 0
-113 -57 -113 -30 0 -73 42 -73 72 0 71 85 98 130 41z m-637 -342 c15 -2 45
-63 40 -82 -7 -24 -50 -59 -73 -59 -10 0 -29 9 -44 21 -55 43 -15 136 54 123
8 -1 18 -3 23 -3z"/>
<path d="M2260 1934 c-8 -2 -36 -6 -62 -9 l-48 -6 0 -403 0 -402 48 1 c26 1
50 3 53 4 4 0 6 163 6 362 0 297 3 363 14 370 8 5 61 7 119 6 163 -5 242 -49
299 -167 23 -49 26 -67 26 -165 0 -100 -3 -116 -28 -170 -30 -65 -84 -126
-132 -152 -18 -9 -63 -17 -110 -19 -81 -4 -126 -23 -133 -55 -3 -18 32 -23
149 -23 77 0 93 3 152 32 150 74 234 235 222 425 -11 187 -108 307 -287 357
-54 15 -99 20 -173 18 -55 -1 -107 -3 -115 -4z"/>
<path d="M3774 1920 c-167 -55 -278 -197 -288 -368 -14 -234 126 -409 353
-445 113 -17 294 19 303 61 2 9 3 85 3 167 l0 150 -53 3 -52 3 -1 -53 c0 -29
0 -94 0 -144 l1 -91 -34 -10 c-19 -6 -68 -10 -108 -8 -123 4 -214 64 -267 175
-23 48 -26 68 -26 160 0 95 3 111 28 162 33 67 81 117 145 149 62 31 186 35
271 9 l59 -18 11 25 c6 13 11 30 11 38 0 22 -89 46 -195 51 -82 3 -111 1 -161
-16z"/>
<path d="M3102 1523 l3 -408 50 0 50 0 0 405 0 405 -53 3 -52 3 2 -408z"/>
<path d="M4419 1928 c-1 -4 -1 -735 0 -780 l1 -37 45 3 c24 1 48 5 51 9 4 4 7
186 7 404 l0 398 -51 3 c-29 2 -52 2 -53 0z"/>
<path d="M4770 1889 c0 -24 5 -39 13 -40 6 -1 59 -1 117 -1 58 0 107 -4 110
-8 3 -5 4 -163 3 -352 0 -188 1 -350 3 -359 3 -11 18 -15 57 -16 l52 0 0 366
0 366 110 2 c61 1 115 2 121 2 6 1 10 18 10 39 l-1 37 -297 1 -298 2 0 -39z"/>
<path d="M5845 1894 c-8 -20 -15 -42 -15 -50 0 -7 -4 -15 -9 -18 -5 -3 -12
-18 -15 -32 -4 -14 -43 -124 -87 -243 -44 -119 -93 -254 -110 -301 -17 -47
-34 -93 -40 -102 -5 -10 -9 -22 -9 -26 0 -12 97 -9 108 3 5 6 22 49 38 98 l29
87 142 0 c79 0 143 3 143 8 0 4 -11 21 -24 37 -24 29 -26 30 -128 33 l-105 4
30 81 c16 45 49 138 73 207 24 69 44 119 44 111 0 -7 28 -90 61 -185 34 -94
87 -243 118 -331 l58 -160 56 -1 c31 0 57 3 57 7 0 7 -23 67 -40 104 -5 11
-21 54 -35 95 -14 41 -69 194 -123 340 l-98 265 -52 3 c-51 3 -51 3 -67 -34z"/>
<path d="M6540 1520 l0 -406 228 0 227 1 0 40 0 40 -170 0 -170 1 -3 367 -2
368 -55 -2 -55 -2 0 -407z"/>
</g>
</svg>
