<svg width="633" height="583" viewBox="0 0 633 583" fill="none" xmlns="http://www.w3.org/2000/svg">
<g filter="url(#filter0_d_242_797)">
<path fill-rule="evenodd" clip-rule="evenodd" d="M334 531.91C465.946 531.91 572.91 424.946 572.91 293C572.91 161.054 465.946 54.0901 334 54.0901C202.054 54.0901 95.0901 161.054 95.0901 293C95.0901 424.946 202.054 531.91 334 531.91ZM334 533C466.548 533 574 425.548 574 293C574 160.452 466.548 53 334 53C201.452 53 94 160.452 94 293C94 425.548 201.452 533 334 533Z" fill="#FFAE94"/>
<path fill-rule="evenodd" clip-rule="evenodd" d="M334 407.1C397.016 407.1 448.1 356.016 448.1 293C448.1 229.984 397.016 178.9 334 178.9C270.984 178.9 219.9 229.984 219.9 293C219.9 356.016 270.984 407.1 334 407.1ZM334 408C397.513 408 449 356.513 449 293C449 229.487 397.513 178 334 178C270.487 178 219 229.487 219 293C219 356.513 270.487 408 334 408Z" fill="#FFAE94"/>
<circle cx="334" cy="293" r="115" fill="#14418A"/>
<path d="M347.214 305.197H340.415V245H347.214V273.987H381.869V245H388.668V305.197H381.869V280.941H347.214V305.197Z" fill="white"/>
<path fill-rule="evenodd" clip-rule="evenodd" d="M280.314 305.197H286.619V266.762L280.314 259.027V305.197ZM280.314 254.759V245H280.887L306.93 276.519L332.973 245H333.547V305.197H327.242V262.519L307.36 286.758H306.5L288.47 264.777V264.766L280.314 254.759Z" fill="white"/>
<path d="M317.672 333.873C317.401 333.873 317.139 333.864 316.887 333.846C316.634 333.833 316.367 333.803 316.084 333.754C315.808 333.711 315.495 333.647 315.146 333.561C315.26 333.347 315.396 333.158 315.552 332.993C315.714 332.822 315.901 332.693 316.111 332.608C316.328 332.522 316.571 332.492 316.842 332.516C317.034 332.534 317.182 332.547 317.284 332.553C317.386 332.553 317.509 332.553 317.654 332.553C318.231 332.553 318.769 332.406 319.268 332.113C319.767 331.819 320.203 331.416 320.576 330.902C320.949 330.389 321.241 329.796 321.451 329.123C321.662 328.445 321.767 327.724 321.767 326.959C321.767 325.78 321.568 324.777 321.171 323.952C320.781 323.127 320.191 322.5 319.404 322.072C318.616 321.638 317.63 321.421 316.445 321.421C316.084 321.421 315.729 321.433 315.381 321.458C315.032 321.482 314.713 321.513 314.424 321.55V333.653H312.711V320.523C313.282 320.382 313.916 320.275 314.614 320.202C315.311 320.122 315.922 320.082 316.445 320.082C317.972 320.082 319.268 320.358 320.333 320.908C321.403 321.458 322.215 322.246 322.768 323.273C323.327 324.3 323.607 325.529 323.607 326.959C323.607 327.956 323.45 328.876 323.138 329.719C322.825 330.563 322.392 331.297 321.839 331.92C321.292 332.537 320.66 333.017 319.945 333.36C319.235 333.702 318.477 333.873 317.672 333.873Z" fill="white"/>
<path d="M327.736 333.653V320.321H329.396V333.653H327.736Z" fill="white"/>
<path d="M340.554 333.873C339.628 333.873 338.756 333.717 337.938 333.406C337.126 333.094 336.408 332.641 335.782 332.048C335.163 331.456 334.676 330.734 334.321 329.884C333.966 329.035 333.789 328.072 333.789 326.996C333.789 325.963 333.966 325.025 334.321 324.181C334.676 323.331 335.163 322.601 335.782 321.99C336.408 321.378 337.126 320.908 337.938 320.578C338.756 320.248 339.628 320.082 340.554 320.082C341.071 320.082 341.636 320.141 342.25 320.257C342.869 320.373 343.494 320.584 344.126 320.889L343.657 322.081C343.019 321.794 342.445 321.614 341.934 321.54C341.429 321.461 340.969 321.421 340.554 321.421C339.935 321.421 339.33 321.537 338.741 321.77C338.152 321.996 337.622 322.341 337.153 322.806C336.69 323.264 336.321 323.842 336.044 324.539C335.767 325.236 335.629 326.055 335.629 326.996C335.629 327.931 335.767 328.747 336.044 329.444C336.321 330.141 336.69 330.719 337.153 331.177C337.622 331.636 338.152 331.981 338.741 332.214C339.33 332.44 339.935 332.553 340.554 332.553C340.819 332.553 341.122 332.534 341.465 332.498C341.808 332.455 342.178 332.369 342.574 332.241V327.473H344.234V332.975C343.801 333.207 343.365 333.39 342.926 333.525C342.493 333.653 342.075 333.742 341.672 333.791C341.27 333.846 340.897 333.873 340.554 333.873Z" fill="white"/>
<path d="M348.555 333.653V320.321H350.215V333.653H348.555Z" fill="white"/>
<path d="M357.982 333.653V321.641H354.157V320.321H363.556V321.641H359.713V333.653H357.982Z" fill="white"/>
<path d="M366.586 333.653L371.312 320.321H372.99L377.716 333.653H375.876L372.214 322.907L372.088 322.375L371.962 322.907L369.941 328.793L369.743 329.178L369.959 329.142H372.395C372.683 329.142 372.924 329.203 373.116 329.325C373.315 329.447 373.477 329.609 373.603 329.811C373.736 330.013 373.844 330.23 373.928 330.462H369.382L368.3 333.653H366.586Z" fill="white"/>
<path d="M382.11 333.653V320.321H383.841V332.314H389.325L389.307 333.653H382.11Z" fill="white"/>
<path d="M292.236 316.264C292.236 316.553 292.129 316.817 291.953 317.02L299.522 321.561C299.547 321.135 299.804 320.772 300.168 320.596L292.125 315.77C292.196 315.919 292.236 316.087 292.236 316.264Z" fill="white"/>
<path d="M300.159 333.97L292.235 338.631C292.204 338.023 291.702 337.54 291.086 337.54C290.471 337.54 289.968 338.023 289.938 338.631L281.92 333.915C282.245 333.711 282.461 333.351 282.461 332.939C282.461 332.921 282.46 332.903 282.46 332.886L290.41 337.563V328.311C290.6 328.449 290.834 328.531 291.086 328.531C291.339 328.531 291.572 328.449 291.762 328.311V337.563L299.521 332.998C299.543 333.425 299.797 333.79 300.159 333.97Z" fill="white"/>
<path d="M301.346 332.009V322.561C301.156 322.699 300.923 322.781 300.67 322.781C300.497 322.781 300.333 322.742 300.186 322.674V331.896C300.333 331.828 300.497 331.789 300.67 331.789C300.923 331.789 301.156 331.871 301.346 332.009Z" fill="white"/>
<path d="M281.987 332.009V322.645L289.938 327.322C289.959 326.896 290.213 326.531 290.575 326.351L282.551 321.631L290.28 317.084C290.068 316.875 289.936 316.585 289.936 316.264C289.936 316.139 289.956 316.019 289.993 315.907L281.92 320.655C282.245 320.859 282.461 321.219 282.461 321.631C282.461 322.266 281.946 322.781 281.311 322.781C281.138 322.781 280.974 322.742 280.826 322.674V331.896C280.974 331.828 281.138 331.789 281.311 331.789C281.563 331.789 281.797 331.871 281.987 332.009Z" fill="white"/>
<path d="M292.236 327.381C292.236 326.926 291.972 326.533 291.59 326.347L299.52 321.604C299.52 321.613 299.52 321.622 299.52 321.631C299.52 322.086 299.784 322.479 300.168 322.666L292.235 327.425C292.236 327.411 292.236 327.396 292.236 327.381Z" fill="white"/>
<path fill-rule="evenodd" clip-rule="evenodd" d="M293.396 316.264C293.396 317.54 292.362 318.574 291.086 318.574C289.81 318.574 288.775 317.54 288.775 316.264C288.775 314.988 289.81 313.953 291.086 313.953C292.362 313.953 293.396 314.988 293.396 316.264ZM291.086 317.414C291.721 317.414 292.236 316.899 292.236 316.264C292.236 315.629 291.721 315.114 291.086 315.114C290.451 315.114 289.936 315.629 289.936 316.264C289.936 316.899 290.451 317.414 291.086 317.414Z" fill="white"/>
<path fill-rule="evenodd" clip-rule="evenodd" d="M283.621 321.631C283.621 322.907 282.586 323.941 281.31 323.941C280.034 323.941 279 322.907 279 321.631C279 320.355 280.034 319.32 281.31 319.32C282.586 319.32 283.621 320.355 283.621 321.631ZM281.31 322.781C281.946 322.781 282.46 322.266 282.46 321.631C282.46 320.995 281.946 320.481 281.31 320.481C280.675 320.481 280.16 320.995 280.16 321.631C280.16 322.266 280.675 322.781 281.31 322.781Z" fill="white"/>
<path fill-rule="evenodd" clip-rule="evenodd" d="M300.67 323.941C301.946 323.941 302.98 322.907 302.98 321.631C302.98 320.355 301.946 319.32 300.67 319.32C299.394 319.32 298.359 320.355 298.359 321.631C298.359 322.907 299.394 323.941 300.67 323.941ZM301.82 321.631C301.82 322.266 301.305 322.781 300.67 322.781C300.034 322.781 299.52 322.266 299.52 321.631C299.52 320.995 300.034 320.481 300.67 320.481C301.305 320.481 301.82 320.995 301.82 321.631Z" fill="white"/>
<path fill-rule="evenodd" clip-rule="evenodd" d="M293.396 327.381C293.396 328.657 292.362 329.691 291.086 329.691C289.81 329.691 288.775 328.657 288.775 327.381C288.775 326.105 289.81 325.07 291.086 325.07C292.362 325.07 293.396 326.105 293.396 327.381ZM291.086 328.531C291.721 328.531 292.236 328.016 292.236 327.381C292.236 326.746 291.721 326.231 291.086 326.231C290.451 326.231 289.936 326.746 289.936 327.381C289.936 328.016 290.451 328.531 291.086 328.531Z" fill="white"/>
<path fill-rule="evenodd" clip-rule="evenodd" d="M281.31 335.25C282.586 335.25 283.621 334.215 283.621 332.939C283.621 331.663 282.586 330.629 281.31 330.629C280.034 330.629 279 331.663 279 332.939C279 334.215 280.034 335.25 281.31 335.25ZM282.46 332.939C282.46 333.575 281.946 334.089 281.31 334.089C280.675 334.089 280.16 333.575 280.16 332.939C280.16 332.304 280.675 331.789 281.31 331.789C281.946 331.789 282.46 332.304 282.46 332.939Z" fill="white"/>
<path fill-rule="evenodd" clip-rule="evenodd" d="M293.396 338.69C293.396 339.966 292.362 341 291.086 341C289.81 341 288.775 339.966 288.775 338.69C288.775 337.414 289.81 336.379 291.086 336.379C292.362 336.379 293.396 337.414 293.396 338.69ZM291.086 339.84C291.721 339.84 292.236 339.325 292.236 338.69C292.236 338.054 291.721 337.54 291.086 337.54C290.451 337.54 289.936 338.054 289.936 338.69C289.936 339.325 290.451 339.84 291.086 339.84Z" fill="white"/>
<path fill-rule="evenodd" clip-rule="evenodd" d="M300.67 335.25C301.946 335.25 302.98 334.215 302.98 332.939C302.98 331.663 301.946 330.629 300.67 330.629C299.394 330.629 298.359 331.663 298.359 332.939C298.359 334.215 299.394 335.25 300.67 335.25ZM301.82 332.939C301.82 333.575 301.305 334.089 300.67 334.089C300.034 334.089 299.52 333.575 299.52 332.939C299.52 332.304 300.034 331.789 300.67 331.789C301.305 331.789 301.82 332.304 301.82 332.939Z" fill="white"/>
</g>
<g filter="url(#filter1_d_242_797)">
<path d="M372 52C372 69.6731 357.673 84 340 84C322.327 84 308 69.6731 308 52C308 34.3269 322.327 20 340 20C357.673 20 372 34.3269 372 52Z" fill="#FF8C4B"/>
</g>
<path d="M335.921 60V57.456H339.737V46.584L336.785 48.36L335.585 46.104L340.625 43.08H342.809V57.456H346.385V60H335.921Z" fill="white"/>
<path d="M294.167 125.16C293.282 125.16 292.46 125.048 291.703 124.824C290.946 124.589 290.306 124.275 289.783 123.88L290.407 122.264C290.93 122.637 291.5 122.925 292.119 123.128C292.748 123.331 293.431 123.432 294.167 123.432C295.01 123.432 295.623 123.293 296.007 123.016C296.391 122.728 296.583 122.36 296.583 121.912C296.583 121.539 296.444 121.245 296.167 121.032C295.9 120.819 295.436 120.643 294.775 120.504L293.015 120.136C291.01 119.709 290.007 118.68 290.007 117.048C290.007 116.344 290.194 115.731 290.567 115.208C290.94 114.685 291.458 114.28 292.119 113.992C292.78 113.704 293.543 113.56 294.407 113.56C295.175 113.56 295.895 113.677 296.567 113.912C297.239 114.136 297.799 114.456 298.247 114.872L297.623 116.408C296.738 115.661 295.66 115.288 294.391 115.288C293.655 115.288 293.079 115.443 292.663 115.752C292.247 116.061 292.039 116.467 292.039 116.968C292.039 117.352 292.167 117.661 292.423 117.896C292.679 118.12 293.116 118.296 293.735 118.424L295.479 118.792C296.535 119.016 297.319 119.368 297.831 119.848C298.354 120.328 298.615 120.968 298.615 121.768C298.615 122.44 298.434 123.032 298.071 123.544C297.708 124.056 297.191 124.456 296.519 124.744C295.858 125.021 295.074 125.16 294.167 125.16ZM300.079 125L305.183 113.72H306.863L311.967 125H309.887L308.767 122.392H303.263L302.159 125H300.079ZM305.999 115.944L303.967 120.76H308.062L306.031 115.944H305.999ZM305.327 112.76L307.215 109.976H309.295L306.751 112.76H305.327ZM314.201 125V113.72H315.737L321.801 121.592V113.72H323.705V125H322.185L316.105 117.096V125H314.201ZM332.594 125.16C331.346 125.16 330.29 124.925 329.426 124.456C328.572 123.987 327.922 123.32 327.474 122.456C327.026 121.592 326.802 120.568 326.802 119.384C326.802 118.189 327.031 117.16 327.49 116.296C327.948 115.421 328.61 114.749 329.474 114.28C330.338 113.8 331.372 113.56 332.578 113.56C333.367 113.56 334.108 113.677 334.802 113.912C335.495 114.136 336.071 114.451 336.53 114.856L335.842 116.456C335.34 116.061 334.828 115.779 334.306 115.608C333.783 115.437 333.207 115.352 332.578 115.352C331.383 115.352 330.476 115.699 329.858 116.392C329.25 117.085 328.946 118.083 328.946 119.384C328.946 120.696 329.26 121.693 329.89 122.376C330.519 123.059 331.452 123.4 332.69 123.4C333.042 123.4 333.399 123.373 333.762 123.32C334.135 123.256 334.503 123.165 334.866 123.048V120.424H332.274V118.904H336.578V124.328C336.055 124.584 335.436 124.787 334.722 124.936C334.007 125.085 333.298 125.16 332.594 125.16ZM347.983 125V115.432H344.111V113.72H353.903V115.432H350.031V125H347.983ZM353.735 125L358.839 113.72H360.519L365.623 125H363.543L362.423 122.392H356.919L355.815 125H353.735ZM359.655 115.944L357.623 120.76H361.719L359.687 115.944H359.655ZM358.711 128.264V126.408H360.663V128.264H358.711ZM372.679 125.16C371.591 125.16 370.636 124.92 369.815 124.44C369.004 123.96 368.375 123.288 367.927 122.424C367.479 121.549 367.255 120.525 367.255 119.352C367.255 118.168 367.479 117.144 367.927 116.28C368.375 115.416 369.004 114.749 369.815 114.28C370.625 113.8 371.58 113.56 372.679 113.56C373.777 113.56 374.732 113.8 375.543 114.28C376.353 114.749 376.983 115.416 377.431 116.28C377.879 117.144 378.103 118.163 378.103 119.336C378.103 120.52 377.879 121.549 377.431 122.424C376.983 123.288 376.353 123.96 375.543 124.44C374.732 124.92 373.777 125.16 372.679 125.16ZM372.679 123.4C373.713 123.4 374.519 123.043 375.095 122.328C375.671 121.613 375.959 120.621 375.959 119.352C375.959 118.072 375.671 117.08 375.095 116.376C374.529 115.672 373.724 115.32 372.679 115.32C371.644 115.32 370.839 115.672 370.263 116.376C369.687 117.08 369.399 118.072 369.399 119.352C369.399 120.621 369.687 121.613 370.263 122.328C370.839 123.043 371.644 123.4 372.679 123.4Z" fill="#1D1D1D"/>
<g filter="url(#filter2_d_242_797)">
<path d="M593 225C593 242.673 578.673 257 561 257C543.327 257 529 242.673 529 225C529 207.327 543.327 193 561 193C578.673 193 593 207.327 593 225Z" fill="#27AE60"/>
</g>
<path d="M556.225 233V230.72L561.697 224.888C562.433 224.088 562.961 223.384 563.281 222.776C563.601 222.152 563.761 221.52 563.761 220.88C563.761 219.248 562.777 218.432 560.809 218.432C559.273 218.432 557.857 219.008 556.561 220.16L555.529 217.856C556.201 217.248 557.041 216.76 558.049 216.392C559.057 216.024 560.105 215.84 561.193 215.84C563.001 215.84 564.385 216.248 565.345 217.064C566.321 217.88 566.809 219.048 566.809 220.568C566.809 221.592 566.561 222.576 566.065 223.52C565.585 224.464 564.825 225.48 563.785 226.568L560.065 230.456H567.457V233H556.225Z" fill="white"/>
<path d="M514.55 298.16C513.377 298.16 512.369 297.925 511.526 297.456C510.694 296.976 510.054 296.304 509.606 295.44C509.158 294.565 508.934 293.536 508.934 292.352C508.934 291.168 509.158 290.144 509.606 289.28C510.054 288.416 510.694 287.749 511.526 287.28C512.369 286.8 513.377 286.56 514.55 286.56C515.308 286.56 516.022 286.677 516.694 286.912C517.377 287.147 517.937 287.483 518.374 287.92L517.702 289.552C517.222 289.147 516.732 288.853 516.23 288.672C515.729 288.48 515.19 288.384 514.614 288.384C513.473 288.384 512.604 288.731 512.006 289.424C511.409 290.107 511.11 291.083 511.11 292.352C511.11 293.621 511.409 294.603 512.006 295.296C512.604 295.989 513.473 296.336 514.614 296.336C515.19 296.336 515.729 296.245 516.23 296.064C516.732 295.872 517.222 295.573 517.702 295.168L518.374 296.8C517.937 297.227 517.377 297.563 516.694 297.808C516.022 298.043 515.308 298.16 514.55 298.16ZM521.162 298V286.72H523.21V291.424H529.018V286.72H531.066V298H529.018V293.136H523.21V298H521.162ZM539.225 298.16C537.678 298.16 536.494 297.76 535.673 296.96C534.862 296.149 534.457 294.955 534.457 293.376V286.72H536.505V293.36C536.505 294.373 536.734 295.136 537.193 295.648C537.662 296.149 538.339 296.4 539.225 296.4C541.027 296.4 541.929 295.387 541.929 293.36V286.72H543.961V293.376C543.961 294.955 543.561 296.149 542.761 296.96C541.961 297.76 540.782 298.16 539.225 298.16ZM538.617 285.76V285.472C538.617 285.216 538.691 285.024 538.841 284.896C538.99 284.757 539.139 284.635 539.289 284.528C539.438 284.421 539.513 284.299 539.513 284.16C539.513 283.947 539.299 283.84 538.873 283.84C538.553 283.84 538.233 283.909 537.913 284.048L537.609 283.2C538.057 282.976 538.638 282.864 539.353 282.864C539.875 282.864 540.286 282.955 540.585 283.136C540.883 283.317 541.033 283.563 541.033 283.872C541.033 284.107 540.974 284.293 540.857 284.432C540.739 284.571 540.601 284.693 540.441 284.8C540.281 284.896 540.142 285.003 540.025 285.12C539.907 285.227 539.849 285.376 539.849 285.568V285.76H538.617ZM552.662 298V286.72H556.854C558.742 286.72 560.198 287.205 561.222 288.176C562.256 289.147 562.774 290.539 562.774 292.352C562.774 294.155 562.256 295.547 561.222 296.528C560.198 297.509 558.742 298 556.854 298H552.662ZM554.71 296.304H556.726C559.328 296.304 560.63 294.987 560.63 292.352C560.63 289.728 559.328 288.416 556.726 288.416H554.71V296.304ZM551.27 293.04V291.536H557.734V293.04H551.27ZM570.905 298.16C569.817 298.16 568.863 297.92 568.041 297.44C567.231 296.96 566.601 296.288 566.153 295.424C565.705 294.549 565.481 293.525 565.481 292.352C565.481 291.168 565.705 290.144 566.153 289.28C566.601 288.416 567.231 287.749 568.041 287.28C568.852 286.8 569.807 286.56 570.905 286.56C572.004 286.56 572.959 286.8 573.769 287.28C574.58 287.749 575.209 288.416 575.657 289.28C576.105 290.144 576.329 291.163 576.329 292.336C576.329 293.52 576.105 294.549 575.657 295.424C575.209 296.288 574.58 296.96 573.769 297.44C572.959 297.92 572.004 298.16 570.905 298.16ZM570.905 296.4C571.94 296.4 572.745 296.043 573.321 295.328C573.897 294.613 574.185 293.621 574.185 292.352C574.185 291.072 573.897 290.08 573.321 289.376C572.756 288.672 571.951 288.32 570.905 288.32C569.871 288.32 569.065 288.672 568.489 289.376C567.913 290.08 567.625 291.072 567.625 292.352C567.625 293.621 567.913 294.613 568.489 295.328C569.065 296.043 569.871 296.4 570.905 296.4ZM569.913 301.264V299.408H571.865V301.264H569.913ZM568.041 285.76L570.025 282.976H571.753L573.737 285.76H572.329L570.889 284.096L569.449 285.76H568.041ZM579.412 298V286.72H580.948L587.012 294.592V286.72H588.916V298H587.396L581.316 290.096V298H579.412ZM597.804 298.16C596.556 298.16 595.5 297.925 594.636 297.456C593.783 296.987 593.132 296.32 592.684 295.456C592.236 294.592 592.012 293.568 592.012 292.384C592.012 291.189 592.242 290.16 592.7 289.296C593.159 288.421 593.82 287.749 594.684 287.28C595.548 286.8 596.583 286.56 597.788 286.56C598.578 286.56 599.319 286.677 600.012 286.912C600.706 287.136 601.282 287.451 601.74 287.856L601.052 289.456C600.551 289.061 600.039 288.779 599.516 288.608C598.994 288.437 598.418 288.352 597.788 288.352C596.594 288.352 595.687 288.699 595.068 289.392C594.46 290.085 594.156 291.083 594.156 292.384C594.156 293.696 594.471 294.693 595.1 295.376C595.73 296.059 596.663 296.4 597.9 296.4C598.252 296.4 598.61 296.373 598.972 296.32C599.346 296.256 599.714 296.165 600.076 296.048V293.424H597.484V291.904H601.788V297.328C601.266 297.584 600.647 297.787 599.932 297.936C599.218 298.085 598.508 298.16 597.804 298.16Z" fill="#1D1D1D"/>
<g filter="url(#filter3_d_242_797)">
<path d="M540 467C540 484.673 525.673 499 508 499C490.327 499 476 484.673 476 467C476 449.327 490.327 435 508 435C525.673 435 540 449.327 540 467Z" fill="#3097F5"/>
</g>
<path d="M508.169 475.24C507.017 475.24 505.913 475.072 504.857 474.736C503.817 474.384 502.953 473.912 502.265 473.32L503.273 470.968C504.713 472.088 506.313 472.648 508.073 472.648C510.233 472.648 511.313 471.8 511.313 470.104C511.313 469.304 511.041 468.712 510.497 468.328C509.969 467.928 509.193 467.728 508.169 467.728H505.457V465.184H507.881C508.777 465.184 509.489 464.968 510.017 464.536C510.545 464.088 510.809 463.472 510.809 462.688C510.809 461.952 510.561 461.392 510.065 461.008C509.585 460.624 508.881 460.432 507.953 460.432C506.289 460.432 504.825 461.008 503.561 462.16L502.553 459.856C503.225 459.216 504.065 458.72 505.073 458.368C506.081 458.016 507.129 457.84 508.217 457.84C509.977 457.84 511.345 458.24 512.321 459.04C513.297 459.824 513.785 460.92 513.785 462.328C513.785 463.24 513.553 464.04 513.089 464.728C512.625 465.416 511.993 465.912 511.193 466.216C512.169 466.488 512.929 466.992 513.473 467.728C514.017 468.448 514.289 469.328 514.289 470.368C514.289 471.872 513.745 473.064 512.657 473.944C511.569 474.808 510.073 475.24 508.169 475.24Z" fill="white"/>
<path d="M459.701 540V528.72H463.893C465.781 528.72 467.237 529.205 468.261 530.176C469.295 531.147 469.813 532.539 469.813 534.352C469.813 536.155 469.295 537.547 468.261 538.528C467.237 539.509 465.781 540 463.893 540H459.701ZM461.749 538.304H463.765C466.367 538.304 467.669 536.987 467.669 534.352C467.669 531.728 466.367 530.416 463.765 530.416H461.749V538.304ZM458.309 535.04V533.536H464.773V535.04H458.309ZM477.944 540.16C476.856 540.16 475.902 539.92 475.08 539.44C474.27 538.96 473.64 538.288 473.192 537.424C472.744 536.549 472.52 535.525 472.52 534.352C472.52 533.168 472.744 532.144 473.192 531.28C473.64 530.416 474.27 529.749 475.08 529.28C475.891 528.8 476.846 528.56 477.944 528.56C479.043 528.56 479.998 528.8 480.808 529.28C481.619 529.749 482.248 530.416 482.696 531.28C483.144 532.144 483.368 533.163 483.368 534.336C483.368 535.52 483.144 536.549 482.696 537.424C482.248 538.288 481.619 538.96 480.808 539.44C479.998 539.92 479.043 540.16 477.944 540.16ZM477.944 538.4C478.979 538.4 479.784 538.043 480.36 537.328C480.936 536.613 481.224 535.621 481.224 534.352C481.224 533.072 480.936 532.08 480.36 531.376C479.795 530.672 478.99 530.32 477.944 530.32C476.91 530.32 476.104 530.672 475.528 531.376C474.952 532.08 474.664 533.072 474.664 534.352C474.664 535.621 474.952 536.613 475.528 537.328C476.104 538.043 476.91 538.4 477.944 538.4ZM480.296 526.048L478.424 523.648H480.104L481.448 526.048H480.296ZM475.288 527.76L477.048 525.152H478.808L480.568 527.76H479.288L477.928 526.24L476.568 527.76H475.288ZM486.451 540V528.72H487.987L494.051 536.592V528.72H495.955V540H494.435L488.355 532.096V540H486.451ZM504.844 540.16C503.596 540.16 502.54 539.925 501.676 539.456C500.822 538.987 500.172 538.32 499.724 537.456C499.276 536.592 499.052 535.568 499.052 534.384C499.052 533.189 499.281 532.16 499.74 531.296C500.198 530.421 500.86 529.749 501.724 529.28C502.588 528.8 503.622 528.56 504.828 528.56C505.617 528.56 506.358 528.677 507.052 528.912C507.745 529.136 508.321 529.451 508.78 529.856L508.092 531.456C507.59 531.061 507.078 530.779 506.556 530.608C506.033 530.437 505.457 530.352 504.828 530.352C503.633 530.352 502.726 530.699 502.108 531.392C501.5 532.085 501.196 533.083 501.196 534.384C501.196 535.696 501.51 536.693 502.14 537.376C502.769 538.059 503.702 538.4 504.94 538.4C505.292 538.4 505.649 538.373 506.012 538.32C506.385 538.256 506.753 538.165 507.116 538.048V535.424H504.524V533.904H508.828V539.328C508.305 539.584 507.686 539.787 506.972 539.936C506.257 540.085 505.548 540.16 504.844 540.16ZM517.513 540V528.72H521.705C523.593 528.72 525.049 529.205 526.073 530.176C527.108 531.147 527.625 532.539 527.625 534.352C527.625 536.155 527.108 537.547 526.073 538.528C525.049 539.509 523.593 540 521.705 540H517.513ZM519.561 538.304H521.577C524.18 538.304 525.481 536.987 525.481 534.352C525.481 531.728 524.18 530.416 521.577 530.416H519.561V538.304ZM516.121 535.04V533.536H522.585V535.04H516.121ZM535.757 540.16C534.669 540.16 533.714 539.92 532.893 539.44C532.082 538.96 531.453 538.288 531.005 537.424C530.557 536.549 530.333 535.525 530.333 534.352C530.333 533.168 530.557 532.144 531.005 531.28C531.453 530.416 532.082 529.749 532.893 529.28C533.703 528.8 534.658 528.56 535.757 528.56C536.855 528.56 537.81 528.8 538.621 529.28C539.431 529.749 540.061 530.416 540.509 531.28C540.957 532.144 541.181 533.163 541.181 534.336C541.181 535.52 540.957 536.549 540.509 537.424C540.061 538.288 539.431 538.96 538.621 539.44C537.81 539.92 536.855 540.16 535.757 540.16ZM535.757 538.4C536.791 538.4 537.597 538.043 538.173 537.328C538.749 536.613 539.037 535.621 539.037 534.352C539.037 533.072 538.749 532.08 538.173 531.376C537.607 530.672 536.802 530.32 535.757 530.32C534.722 530.32 533.917 530.672 533.341 531.376C532.765 532.08 532.477 533.072 532.477 534.352C532.477 535.621 532.765 536.613 533.341 537.328C533.917 538.043 534.722 538.4 535.757 538.4ZM534.765 543.264V541.408H536.717V543.264H534.765ZM532.893 527.76L534.877 524.976H536.605L538.589 527.76H537.181L535.741 526.096L534.301 527.76H532.893ZM544.263 540V528.72H546.311V540H544.263Z" fill="#1D1D1D"/>
<g filter="url(#filter4_d_242_797)">
<path d="M134 225C134 242.673 119.673 257 102 257C84.3269 257 70 242.673 70 225C70 207.327 84.3269 193 102 193C119.673 193 134 207.327 134 225Z" fill="#3097F5"/>
</g>
<path d="M102.649 233.24C101.545 233.24 100.473 233.072 99.4327 232.736C98.3927 232.384 97.5447 231.912 96.8887 231.32L97.8967 228.968C99.3527 230.088 100.921 230.648 102.601 230.648C103.609 230.648 104.393 230.392 104.953 229.88C105.529 229.352 105.817 228.648 105.817 227.768C105.817 226.872 105.545 226.152 105.001 225.608C104.457 225.048 103.713 224.768 102.769 224.768C101.425 224.768 100.313 225.304 99.4327 226.376H97.3687V216.08H107.761V218.624H100.369V223.208C101.217 222.568 102.257 222.248 103.489 222.248C104.561 222.248 105.489 222.48 106.273 222.944C107.073 223.392 107.689 224.024 108.121 224.84C108.569 225.64 108.793 226.576 108.793 227.648C108.793 228.752 108.545 229.728 108.049 230.576C107.553 231.408 106.841 232.064 105.913 232.544C105.001 233.008 103.913 233.24 102.649 233.24Z" fill="white"/>
<path d="M1.70075 298V286.72H3.74875V291.424H9.55675V286.72H11.6048V298H9.55675V293.136H3.74875V298H1.70075ZM19.7638 298.16C18.2171 298.16 17.0331 297.76 16.2118 296.96C15.4011 296.149 14.9958 294.955 14.9958 293.376V286.72H17.0438V293.36C17.0438 294.373 17.2731 295.136 17.7318 295.648C18.2011 296.149 18.8784 296.4 19.7638 296.4C21.5664 296.4 22.4678 295.387 22.4678 293.36V286.72H24.4998V293.376C24.4998 294.955 24.0998 296.149 23.2998 296.96C22.4998 297.76 21.3211 298.16 19.7638 298.16ZM24.1478 287.744L23.0118 287.024V286.72C23.5771 286.709 23.9771 286.587 24.2118 286.352C24.4571 286.107 24.5798 285.664 24.5798 285.024V284.688H26.3238V285.28C26.3238 285.963 26.1264 286.528 25.7318 286.976C25.3478 287.424 24.8198 287.68 24.1478 287.744ZM32.9443 298.16C31.8563 298.16 30.9016 297.92 30.0803 297.44C29.2696 296.96 28.6403 296.288 28.1923 295.424C27.7443 294.549 27.5203 293.525 27.5203 292.352C27.5203 291.168 27.7443 290.144 28.1923 289.28C28.6403 288.416 29.2696 287.749 30.0803 287.28C30.8909 286.8 31.8456 286.56 32.9443 286.56C34.0429 286.56 34.9976 286.8 35.8083 287.28C36.6189 287.749 37.2483 288.416 37.6963 289.28C38.1443 290.144 38.3683 291.163 38.3683 292.336C38.3683 293.52 38.1443 294.549 37.6963 295.424C37.2483 296.288 36.6189 296.96 35.8083 297.44C34.9976 297.92 34.0429 298.16 32.9443 298.16ZM32.9443 296.4C33.9789 296.4 34.7843 296.043 35.3603 295.328C35.9363 294.613 36.2243 293.621 36.2243 292.352C36.2243 291.072 35.9363 290.08 35.3603 289.376C34.7949 288.672 33.9896 288.32 32.9443 288.32C31.9096 288.32 31.1043 288.672 30.5283 289.376C29.9523 290.08 29.6643 291.072 29.6643 292.352C29.6643 293.621 29.9523 294.613 30.5283 295.328C31.1043 296.043 31.9096 296.4 32.9443 296.4ZM34.5603 287.744L33.8563 286.656C34.0589 286.667 34.2616 286.683 34.4643 286.704C34.6776 286.715 34.8536 286.72 34.9923 286.72C35.5576 286.72 35.9629 286.603 36.2083 286.368C36.4536 286.123 36.5763 285.675 36.5763 285.024V284.688H38.3043V285.28C38.3043 285.739 38.2083 286.155 38.0163 286.528C37.8243 286.901 37.5576 287.2 37.2163 287.424C36.8749 287.637 36.4803 287.744 36.0323 287.744H34.5603ZM32.1763 285.76L34.0643 282.976H36.1443L33.6003 285.76H32.1763ZM41.4508 298V286.72H42.9868L49.0508 294.592V286.72H50.9548V298H49.4348L43.3548 290.096V298H41.4508ZM59.8435 298.16C58.5955 298.16 57.5395 297.925 56.6755 297.456C55.8222 296.987 55.1715 296.32 54.7235 295.456C54.2755 294.592 54.0515 293.568 54.0515 292.384C54.0515 291.189 54.2808 290.16 54.7395 289.296C55.1982 288.421 55.8595 287.749 56.7235 287.28C57.5875 286.8 58.6222 286.56 59.8275 286.56C60.6168 286.56 61.3582 286.677 62.0515 286.912C62.7448 287.136 63.3208 287.451 63.7795 287.856L63.0915 289.456C62.5902 289.061 62.0782 288.779 61.5555 288.608C61.0328 288.437 60.4568 288.352 59.8275 288.352C58.6328 288.352 57.7262 288.699 57.1075 289.392C56.4995 290.085 56.1955 291.083 56.1955 292.384C56.1955 293.696 56.5102 294.693 57.1395 295.376C57.7688 296.059 58.7022 296.4 59.9395 296.4C60.2915 296.4 60.6488 296.373 61.0115 296.32C61.3848 296.256 61.7528 296.165 62.1155 296.048V293.424H59.5235V291.904H63.8275V297.328C63.3048 297.584 62.6862 297.787 61.9715 297.936C61.2568 298.085 60.5475 298.16 59.8435 298.16ZM72.5133 298V286.72H74.5613V291.712H74.5933L79.5693 286.72H82.0653L76.5773 292.144L82.3373 298H79.8093L74.5933 292.784H74.5613V298H72.5133ZM84.1383 298V286.72H86.1863V291.424H91.9943V286.72H94.0423V298H91.9943V293.136H86.1863V298H84.1383ZM96.2973 298L101.401 286.72H103.081L108.185 298H106.105L104.985 295.392H99.4813L98.3773 298H96.2973ZM102.217 288.944L100.185 293.76H104.281L102.249 288.944H102.217ZM101.545 285.76L103.433 282.976H105.513L102.969 285.76H101.545ZM115.433 298.16C114.26 298.16 113.252 297.925 112.409 297.456C111.577 296.976 110.937 296.304 110.489 295.44C110.041 294.565 109.817 293.536 109.817 292.352C109.817 291.168 110.041 290.144 110.489 289.28C110.937 288.416 111.577 287.749 112.409 287.28C113.252 286.8 114.26 286.56 115.433 286.56C116.19 286.56 116.905 286.677 117.577 286.912C118.26 287.147 118.82 287.483 119.257 287.92L118.585 289.552C118.105 289.147 117.614 288.853 117.113 288.672C116.612 288.48 116.073 288.384 115.497 288.384C114.356 288.384 113.486 288.731 112.889 289.424C112.292 290.107 111.993 291.083 111.993 292.352C111.993 293.621 112.292 294.603 112.889 295.296C113.486 295.989 114.356 296.336 115.497 296.336C116.073 296.336 116.612 296.245 117.113 296.064C117.614 295.872 118.105 295.573 118.585 295.168L119.257 296.8C118.82 297.227 118.26 297.563 117.577 297.808C116.905 298.043 116.19 298.16 115.433 298.16ZM122.045 298V286.72H124.093V291.424H129.901V286.72H131.949V298H129.901V293.136H124.093V298H122.045ZM140.732 298V286.72H142.78V291.424H148.588V286.72H150.636V298H148.588V293.136H142.78V298H140.732ZM152.891 298L157.995 286.72H159.675L164.779 298H162.699L161.579 295.392H156.075L154.971 298H152.891ZM158.811 288.944L156.779 293.76H160.875L158.843 288.944H158.811ZM158.139 285.76L155.579 282.976H157.675L159.563 285.76H158.139ZM167.013 298V286.72H168.549L174.613 294.592V286.72H176.517V298H174.997L168.917 290.096V298H167.013ZM185.406 298.16C184.158 298.16 183.102 297.925 182.238 297.456C181.385 296.987 180.734 296.32 180.286 295.456C179.838 294.592 179.614 293.568 179.614 292.384C179.614 291.189 179.843 290.16 180.302 289.296C180.761 288.421 181.422 287.749 182.286 287.28C183.15 286.8 184.185 286.56 185.39 286.56C186.179 286.56 186.921 286.677 187.614 286.912C188.307 287.136 188.883 287.451 189.342 287.856L188.654 289.456C188.153 289.061 187.641 288.779 187.118 288.608C186.595 288.437 186.019 288.352 185.39 288.352C184.195 288.352 183.289 288.699 182.67 289.392C182.062 290.085 181.758 291.083 181.758 292.384C181.758 293.696 182.073 294.693 182.702 295.376C183.331 296.059 184.265 296.4 185.502 296.4C185.854 296.4 186.211 296.373 186.574 296.32C186.947 296.256 187.315 296.165 187.678 296.048V293.424H185.086V291.904H189.39V297.328C188.867 297.584 188.249 297.787 187.534 297.936C186.819 298.085 186.11 298.16 185.406 298.16Z" fill="#1D1D1D"/>
<g filter="url(#filter5_d_242_797)">
<path d="M197 467C197 484.673 182.673 499 165 499C147.327 499 133 484.673 133 467C133 449.327 147.327 435 165 435C182.673 435 197 449.327 197 467Z" fill="#27AE60"/>
</g>
<path d="M166.681 475V471.784H159.313V469.528L167.209 458.08H169.753V469.24H172.129V471.784H169.753V475H166.681ZM166.681 469.24V462.784L162.265 469.24H166.681Z" fill="white"/>
<path d="M101.35 540V530.432H97.4784V528.72H107.27V530.432H103.398V540H101.35ZM109.568 540V528.72H114.464C115.701 528.72 116.656 529.019 117.328 529.616C118 530.203 118.336 531.029 118.336 532.096C118.336 532.939 118.117 533.637 117.68 534.192C117.243 534.736 116.613 535.104 115.792 535.296C116.336 535.467 116.784 535.877 117.136 536.528L119.024 540H116.768L114.816 536.4C114.624 536.048 114.395 535.808 114.128 535.68C113.872 535.552 113.541 535.488 113.136 535.488H111.616V540H109.568ZM111.616 533.968H114.112C115.605 533.968 116.352 533.36 116.352 532.144C116.352 530.939 115.605 530.336 114.112 530.336H111.616V533.968ZM120.118 540L125.222 528.72H126.902L132.006 540H129.926L128.806 537.392H123.302L122.198 540H120.118ZM126.038 530.944L124.006 535.76H128.102L126.07 530.944H126.038ZM125.366 527.76L127.254 524.976H129.334L126.79 527.76H125.366ZM139.253 540.16C138.08 540.16 137.072 539.925 136.229 539.456C135.397 538.976 134.757 538.304 134.309 537.44C133.861 536.565 133.637 535.536 133.637 534.352C133.637 533.168 133.861 532.144 134.309 531.28C134.757 530.416 135.397 529.749 136.229 529.28C137.072 528.8 138.08 528.56 139.253 528.56C140.011 528.56 140.725 528.677 141.397 528.912C142.08 529.147 142.64 529.483 143.077 529.92L142.405 531.552C141.925 531.147 141.435 530.853 140.933 530.672C140.432 530.48 139.893 530.384 139.317 530.384C138.176 530.384 137.307 530.731 136.709 531.424C136.112 532.107 135.813 533.083 135.813 534.352C135.813 535.621 136.112 536.603 136.709 537.296C137.307 537.989 138.176 538.336 139.317 538.336C139.893 538.336 140.432 538.245 140.933 538.064C141.435 537.872 141.925 537.573 142.405 537.168L143.077 538.8C142.64 539.227 142.08 539.563 141.397 539.808C140.725 540.043 140.011 540.16 139.253 540.16ZM145.865 540V528.72H147.913V533.424H153.721V528.72H155.769V540H153.721V535.136H147.913V540H145.865ZM164.552 540V528.72H166.088L172.152 536.592V528.72H174.056V540H172.536L166.456 532.096V540H164.552ZM177.521 540V528.72H179.569V533.424H185.377V528.72H187.425V540H185.377V535.136H179.569V540H177.521ZM190.896 540V528.72H192.944V540H190.896ZM196.396 540V528.72H203.9V530.352H198.364V533.456H203.548V535.088H198.364V538.368H203.9V540H196.396ZM199.436 543.264V541.408H201.388V543.264H199.436ZM197.564 527.76L199.548 524.976H201.276L203.26 527.76H201.852L200.412 526.096L198.972 527.76H197.564ZM206.975 540V528.72H208.687L212.687 536.096L216.671 528.72H218.351V540H216.495V532.4L213.263 538.288H212.063L208.831 532.432V540H206.975Z" fill="#1D1D1D"/>
<defs>
<filter id="filter0_d_242_797" x="64" y="43" width="540" height="540" filterUnits="userSpaceOnUse" color-interpolation-filters="sRGB">
<feFlood flood-opacity="0" result="BackgroundImageFix"/>
<feColorMatrix in="SourceAlpha" type="matrix" values="0 0 0 0 0 0 0 0 0 0 0 0 0 0 0 0 0 0 127 0" result="hardAlpha"/>
<feOffset dy="20"/>
<feGaussianBlur stdDeviation="15"/>
<feColorMatrix type="matrix" values="0 0 0 0 1 0 0 0 0 0.816416 0 0 0 0 0.758333 0 0 0 0.53 0"/>
<feBlend mode="normal" in2="BackgroundImageFix" result="effect1_dropShadow_242_797"/>
<feBlend mode="normal" in="SourceGraphic" in2="effect1_dropShadow_242_797" result="shape"/>
</filter>
<filter id="filter1_d_242_797" x="268" y="0" width="144" height="144" filterUnits="userSpaceOnUse" color-interpolation-filters="sRGB">
<feFlood flood-opacity="0" result="BackgroundImageFix"/>
<feColorMatrix in="SourceAlpha" type="matrix" values="0 0 0 0 0 0 0 0 0 0 0 0 0 0 0 0 0 0 127 0" result="hardAlpha"/>
<feOffset dy="20"/>
<feGaussianBlur stdDeviation="20"/>
<feColorMatrix type="matrix" values="0 0 0 0 1 0 0 0 0 0.305883 0 0 0 0 0.0862745 0 0 0 0.2 0"/>
<feBlend mode="normal" in2="BackgroundImageFix" result="effect1_dropShadow_242_797"/>
<feBlend mode="normal" in="SourceGraphic" in2="effect1_dropShadow_242_797" result="shape"/>
</filter>
<filter id="filter2_d_242_797" x="489" y="173" width="144" height="144" filterUnits="userSpaceOnUse" color-interpolation-filters="sRGB">
<feFlood flood-opacity="0" result="BackgroundImageFix"/>
<feColorMatrix in="SourceAlpha" type="matrix" values="0 0 0 0 0 0 0 0 0 0 0 0 0 0 0 0 0 0 127 0" result="hardAlpha"/>
<feOffset dy="20"/>
<feGaussianBlur stdDeviation="20"/>
<feColorMatrix type="matrix" values="0 0 0 0 0.152941 0 0 0 0 0.682353 0 0 0 0 0.376471 0 0 0 0.2 0"/>
<feBlend mode="normal" in2="BackgroundImageFix" result="effect1_dropShadow_242_797"/>
<feBlend mode="normal" in="SourceGraphic" in2="effect1_dropShadow_242_797" result="shape"/>
</filter>
<filter id="filter3_d_242_797" x="436" y="415" width="144" height="144" filterUnits="userSpaceOnUse" color-interpolation-filters="sRGB">
<feFlood flood-opacity="0" result="BackgroundImageFix"/>
<feColorMatrix in="SourceAlpha" type="matrix" values="0 0 0 0 0 0 0 0 0 0 0 0 0 0 0 0 0 0 127 0" result="hardAlpha"/>
<feOffset dy="20"/>
<feGaussianBlur stdDeviation="20"/>
<feColorMatrix type="matrix" values="0 0 0 0 0.188235 0 0 0 0 0.592157 0 0 0 0 0.960784 0 0 0 0.2 0"/>
<feBlend mode="normal" in2="BackgroundImageFix" result="effect1_dropShadow_242_797"/>
<feBlend mode="normal" in="SourceGraphic" in2="effect1_dropShadow_242_797" result="shape"/>
</filter>
<filter id="filter4_d_242_797" x="30" y="173" width="144" height="144" filterUnits="userSpaceOnUse" color-interpolation-filters="sRGB">
<feFlood flood-opacity="0" result="BackgroundImageFix"/>
<feColorMatrix in="SourceAlpha" type="matrix" values="0 0 0 0 0 0 0 0 0 0 0 0 0 0 0 0 0 0 127 0" result="hardAlpha"/>
<feOffset dy="20"/>
<feGaussianBlur stdDeviation="20"/>
<feColorMatrix type="matrix" values="0 0 0 0 0.188235 0 0 0 0 0.592157 0 0 0 0 0.960784 0 0 0 0.2 0"/>
<feBlend mode="normal" in2="BackgroundImageFix" result="effect1_dropShadow_242_797"/>
<feBlend mode="normal" in="SourceGraphic" in2="effect1_dropShadow_242_797" result="shape"/>
</filter>
<filter id="filter5_d_242_797" x="93" y="415" width="144" height="144" filterUnits="userSpaceOnUse" color-interpolation-filters="sRGB">
<feFlood flood-opacity="0" result="BackgroundImageFix"/>
<feColorMatrix in="SourceAlpha" type="matrix" values="0 0 0 0 0 0 0 0 0 0 0 0 0 0 0 0 0 0 127 0" result="hardAlpha"/>
<feOffset dy="20"/>
<feGaussianBlur stdDeviation="20"/>
<feColorMatrix type="matrix" values="0 0 0 0 0.152941 0 0 0 0 0.682353 0 0 0 0 0.376471 0 0 0 0.2 0"/>
<feBlend mode="normal" in2="BackgroundImageFix" result="effect1_dropShadow_242_797"/>
<feBlend mode="normal" in="SourceGraphic" in2="effect1_dropShadow_242_797" result="shape"/>
</filter>
</defs>
</svg>
