<svg width="24" height="24" viewBox="0 0 24 24" fill="none" xmlns="http://www.w3.org/2000/svg">
<path d="M0.998462 7.81016C2.34314 9.96619 5.06087 13.0923 7.97718 16.0086C10.8935 18.9249 14.0197 21.6428 16.1758 22.9875C19.2283 24.8882 21.9119 22.3462 23.2282 20.6894C23.5126 20.329 23.6673 19.8833 23.6673 19.4242C23.6673 18.9651 23.5126 18.5194 23.2282 18.159C22.1368 16.7865 20.6096 15.8277 18.8992 15.4412C18.5091 15.3598 18.1037 15.395 17.7335 15.5423C17.3632 15.6896 17.0445 15.9424 16.8169 16.2695C16.2495 17.0412 15.2623 17.7561 13.8382 16.3377L10.7517 13.2512L7.65945 10.1589C6.24101 8.74046 6.9559 7.74202 7.72753 7.18599C8.05454 6.957 8.30729 6.6373 8.45452 6.26622C8.60174 5.89514 8.63699 5.48885 8.55591 5.09795C8.17251 3.38783 7.21302 1.86165 5.83819 0.774753C5.4782 0.489407 5.03229 0.333984 4.57292 0.333984C4.11355 0.333984 3.66768 0.489407 3.30769 0.774753C1.65095 2.08539 -0.890889 4.74634 1.00982 7.82152" fill="#1D1D1D"/>
</svg>
 