<svg width="256" height="128" viewBox="0 0 566 566" fill="none" style="background-color:white" xmlns="http://www.w3.org/2000/svg">
  <g clip-path="url(#clip0_357_1580)">
    <path d="M45.0405 348.338H0V126.062L45.0405 174.164V348.338Z" fill="#14418A"/>
    <path d="M0 53V106.358L45.0405 156.495L135.64 244.844H140.126L227.705 161.543V348.338H277.75V53H274.759L140.126 184.261L2.99057 53H0Z" fill="#14418A"/>
    <path d="M310.279 348.338H356.465V225.912L519.991 225.912V348.338L565.508 348.338V53L519.991 53V175.427L356.465 175.427V53H310.279V348.338Z" fill="#14418A"/>
    <path d="M199.137 477C197.752 477 196.414 476.955 195.122 476.864C193.829 476.804 192.46 476.653 191.014 476.412C189.599 476.201 187.999 475.885 186.215 475.463C186.799 474.408 187.491 473.473 188.291 472.66C189.122 471.816 190.076 471.183 191.153 470.761C192.26 470.339 193.506 470.188 194.891 470.309C195.875 470.399 196.629 470.459 197.152 470.489C197.675 470.489 198.306 470.489 199.045 470.489C201.998 470.489 204.752 469.766 207.305 468.319C209.859 466.872 212.09 464.883 213.997 462.351C215.905 459.819 217.397 456.895 218.474 453.58C219.551 450.234 220.089 446.677 220.089 442.91C220.089 437.092 219.074 432.149 217.043 428.08C215.043 424.011 212.028 420.921 207.998 418.811C203.967 416.671 198.921 415.601 192.86 415.601C191.014 415.601 189.199 415.661 187.415 415.782C185.63 415.902 183.999 416.053 182.523 416.234V475.915H173.754V411.17C176.677 410.477 179.923 409.949 183.492 409.588C187.061 409.196 190.184 409 192.86 409C200.675 409 207.305 410.356 212.751 413.069C218.228 415.782 222.381 419.67 225.212 424.734C228.073 429.798 229.504 435.856 229.504 442.91C229.504 447.823 228.704 452.359 227.104 456.519C225.504 460.678 223.289 464.295 220.458 467.37C217.659 470.414 214.428 472.78 210.767 474.468C207.136 476.156 203.26 477 199.137 477Z" fill="#14418A"/>
    <path d="M250.631 475.915V410.176H259.123V475.915H250.631Z" fill="#14418A"/>
    <path d="M316.214 477C311.476 477 307.015 476.231 302.83 474.694C298.677 473.157 295 470.926 291.8 468.003C288.631 465.079 286.139 461.522 284.324 457.332C282.509 453.143 281.601 448.395 281.601 443.09C281.601 437.996 282.509 433.37 284.324 429.21C286.139 425.02 288.631 421.418 291.8 418.404C295 415.39 298.677 413.069 302.83 411.441C307.015 409.814 311.476 409 316.214 409C318.86 409 321.752 409.286 324.89 409.859C328.059 410.432 331.259 411.472 334.49 412.979L332.09 418.856C328.829 417.44 325.89 416.551 323.275 416.189C320.691 415.797 318.337 415.601 316.214 415.601C313.045 415.601 309.953 416.174 306.938 417.319C303.923 418.434 301.215 420.137 298.815 422.428C296.446 424.689 294.554 427.537 293.139 430.973C291.723 434.41 291.016 438.449 291.016 443.09C291.016 447.702 291.723 451.726 293.139 455.162C294.554 458.598 296.446 461.447 298.815 463.707C301.215 465.968 303.923 467.671 306.938 468.816C309.953 469.932 313.045 470.489 316.214 470.489C317.568 470.489 319.122 470.399 320.875 470.218C322.629 470.007 324.521 469.585 326.552 468.952V445.441H335.044V472.569C332.828 473.715 330.598 474.619 328.352 475.282C326.136 475.915 323.998 476.352 321.937 476.593C319.875 476.864 317.968 477 316.214 477Z" fill="#14418A"/>
    <path d="M357.153 475.915V410.176H365.644V475.915H357.153Z" fill="#14418A"/>
    <path d="M405.383 475.915V416.686H385.815V410.176H433.904V416.686H414.244V475.915H405.383Z" fill="#14418A"/>
    <path d="M449.406 475.915L473.589 410.176H482.173L506.356 475.915H496.941L478.204 422.926L477.558 420.303L476.912 422.926L466.574 451.952L465.559 453.851L466.666 453.67H479.127C480.604 453.67 481.834 453.972 482.819 454.574C483.834 455.177 484.665 455.976 485.311 456.971C485.988 457.965 486.542 459.035 486.972 460.181H463.712L458.174 475.915H449.406Z" fill="#14418A"/>
    <path d="M528.833 475.915V410.176H537.694V469.314H565.754L565.662 475.915H528.833Z" fill="#14418A"/>
    <path d="M68.1965 384.947C68.1965 386.443 67.644 387.81 66.7319 388.855L105.871 412.339C106.003 410.139 107.33 408.261 109.213 407.347L67.6212 382.392C67.99 383.166 68.1965 384.032 68.1965 384.947Z" fill="#14418A"/>
    <path d="M109.162 476.504L68.1888 500.606C68.0302 497.464 65.4318 494.964 62.2496 494.964C59.0674 494.964 56.4689 497.464 56.3104 500.607L14.8532 476.22C16.5316 475.169 17.6477 473.303 17.6477 471.177C17.6477 471.084 17.6455 470.991 17.6413 470.899L58.7542 495.083V447.245C59.7353 447.959 60.9433 448.38 62.2496 448.38C63.5559 448.38 64.7637 447.959 65.7449 447.245V495.083L105.868 471.481C105.979 473.686 107.291 475.574 109.162 476.504Z" fill="#14418A"/>
    <path d="M115.303 466.365V417.511C114.322 418.225 113.114 418.646 111.807 418.646C110.913 418.646 110.064 418.448 109.303 418.094V465.781C110.064 465.427 110.913 465.23 111.807 465.23C113.114 465.23 114.322 465.651 115.303 466.365Z" fill="#14418A"/>
    <path d="M15.1963 466.365V417.944L56.3104 442.129C56.4216 439.924 57.7332 438.037 59.6046 437.106L18.1133 412.699L58.0813 389.188C56.9835 388.109 56.3027 386.608 56.3027 384.947C56.3027 384.303 56.4051 383.683 56.5945 383.102L14.8533 407.655C16.5316 408.707 17.6478 410.573 17.6478 412.699C17.6478 415.983 14.9852 418.646 11.7009 418.646C10.8061 418.646 9.95749 418.448 9.19629 418.094V465.781C9.95747 465.427 10.8061 465.23 11.7008 465.23C13.0071 465.23 14.2151 465.651 15.1963 466.365Z" fill="#14418A"/>
    <path d="M68.1965 442.433C68.1965 440.082 66.8324 438.05 64.8525 437.085L105.862 412.56C105.861 412.606 105.86 412.652 105.86 412.699C105.86 415.053 107.228 417.088 109.212 418.051L68.1921 442.664C68.195 442.587 68.1965 442.51 68.1965 442.433Z" fill="#14418A"/>
    <path fill-rule="evenodd" clip-rule="evenodd" d="M74.1965 384.947C74.1965 391.545 68.8477 396.894 62.2496 396.894C55.6515 396.894 50.3027 391.545 50.3027 384.947C50.3027 378.349 55.6515 373 62.2496 373C68.8477 373 74.1965 378.349 74.1965 384.947ZM62.2496 390.894C65.534 390.894 68.1965 388.231 68.1965 384.947C68.1965 381.663 65.534 379 62.2496 379C58.9652 379 56.3027 381.663 56.3027 384.947C56.3027 388.231 58.9652 390.894 62.2496 390.894Z" fill="#14418A"/>
    <path fill-rule="evenodd" clip-rule="evenodd" d="M23.6477 412.699C23.6477 419.297 18.2989 424.646 11.7008 424.646C5.10271 424.646 -0.246094 419.297 -0.246094 412.699C-0.246094 406.101 5.10271 400.752 11.7008 400.752C18.2989 400.752 23.6477 406.101 23.6477 412.699ZM11.7008 418.646C14.9852 418.646 17.6477 415.983 17.6477 412.699C17.6477 409.415 14.9852 406.752 11.7008 406.752C8.41642 406.752 5.75391 409.415 5.75391 412.699C5.75391 415.983 8.41642 418.646 11.7008 418.646Z" fill="#14418A"/>
    <path fill-rule="evenodd" clip-rule="evenodd" d="M111.807 424.646C118.405 424.646 123.754 419.297 123.754 412.699C123.754 406.101 118.405 400.752 111.807 400.752C105.209 400.752 99.8604 406.101 99.8604 412.699C99.8604 419.297 105.209 424.646 111.807 424.646ZM117.754 412.699C117.754 415.983 115.092 418.646 111.807 418.646C108.523 418.646 105.86 415.983 105.86 412.699C105.86 409.415 108.523 406.752 111.807 406.752C115.092 406.752 117.754 409.415 117.754 412.699Z" fill="#14418A"/>
    <path fill-rule="evenodd" clip-rule="evenodd" d="M74.1965 442.433C74.1965 449.032 68.8477 454.38 62.2496 454.38C55.6515 454.38 50.3027 449.032 50.3027 442.433C50.3027 435.835 55.6515 430.487 62.2496 430.487C68.8477 430.487 74.1965 435.835 74.1965 442.433ZM62.2496 448.38C65.534 448.38 68.1965 445.718 68.1965 442.433C68.1965 439.149 65.534 436.487 62.2496 436.487C58.9652 436.487 56.3027 439.149 56.3027 442.433C56.3027 445.718 58.9652 448.38 62.2496 448.38Z" fill="#14418A"/>
    <path fill-rule="evenodd" clip-rule="evenodd" d="M11.7008 483.124C18.2989 483.124 23.6477 477.775 23.6477 471.177C23.6477 464.579 18.2989 459.23 11.7008 459.23C5.10271 459.23 -0.246094 464.579 -0.246094 471.177C-0.246094 477.775 5.10271 483.124 11.7008 483.124ZM17.6477 471.177C17.6477 474.461 14.9852 477.124 11.7008 477.124C8.41642 477.124 5.75391 474.461 5.75391 471.177C5.75391 467.892 8.41642 465.23 11.7008 465.23C14.9852 465.23 17.6477 467.892 17.6477 471.177Z" fill="#14418A"/>
    <path fill-rule="evenodd" clip-rule="evenodd" d="M74.1965 500.911C74.1965 507.509 68.8477 512.858 62.2496 512.858C55.6515 512.858 50.3027 507.509 50.3027 500.911C50.3027 494.313 55.6515 488.964 62.2496 488.964C68.8477 488.964 74.1965 494.313 74.1965 500.911ZM62.2496 506.858C65.534 506.858 68.1965 504.196 68.1965 500.911C68.1965 497.627 65.534 494.964 62.2496 494.964C58.9652 494.964 56.3027 497.627 56.3027 500.911C56.3027 504.196 58.9652 506.858 62.2496 506.858Z" fill="#14418A"/>
    <path fill-rule="evenodd" clip-rule="evenodd" d="M111.807 483.124C118.405 483.124 123.754 477.775 123.754 471.177C123.754 464.579 118.405 459.23 111.807 459.23C105.209 459.23 99.8604 464.579 99.8604 471.177C99.8604 477.775 105.209 483.124 111.807 483.124ZM117.754 471.177C117.754 474.461 115.092 477.124 111.807 477.124C108.523 477.124 105.86 474.461 105.86 471.177C105.86 467.892 108.523 465.23 111.807 465.23C115.092 465.23 117.754 467.892 117.754 471.177Z" fill="#14418A"/>
  </g>
  <defs>
    <clipPath id="clip0_357_1580">
      <rect width="566" height="566" fill="white"/>
    </clipPath>
  </defs>
</svg>
