<svg width="79" height="44" viewBox="0 0 79 44" fill="none" xmlns="http://www.w3.org/2000/svg">
    <path
        d="M7.84424 6.35861V0H8.2177L25.1869 20.5369L42.1562 0H42.5297V39.2234H38.4216V11.4152L25.467 27.2088H24.9068L13.159 12.8862V12.879L7.84424 6.35861Z"
        fill="#ff4b14" />
    <path d="M11.9523 26.6581V14.1794L7.84424 9.13937V21.1807L11.9523 26.6581Z" fill="#ff4b14" />
    <path
        d="M47.0051 39.2234H51.4356V23.4181H74.0158V39.2234H78.4462V0H74.0158V18.8873H51.4356V0H47.0051V39.2234Z"
        fill="#ff4b14" />
    <path
        d="M7.85148 29.3261C7.85148 29.4977 7.7881 29.6546 7.68346 29.7745L12.1735 32.4685C12.1886 32.2161 12.3409 32.0006 12.5568 31.8958L7.78548 29.033C7.82779 29.1218 7.85148 29.2212 7.85148 29.3261Z"
        fill="#ff4b14" />
    <path
        d="M12.5511 39.8295L7.8506 42.5945C7.8324 42.234 7.53431 41.9472 7.16926 41.9472C6.80419 41.9472 6.5061 42.234 6.48791 42.5945L1.73197 39.7969C1.92451 39.6763 2.05255 39.4623 2.05255 39.2183C2.05255 39.2076 2.0523 39.197 2.05182 39.1865L6.76826 41.9608V36.4729C6.88082 36.5548 7.01939 36.6031 7.16926 36.6031C7.31911 36.6031 7.45767 36.5548 7.57023 36.4729V41.9608L12.1731 39.2533C12.1859 39.5061 12.3364 39.7227 12.5511 39.8295Z"
        fill="#ff4b14" />
    <path
        d="M13.2555 38.6663V33.0618C13.1429 33.1437 13.0043 33.192 12.8545 33.192C12.7518 33.192 12.6545 33.1694 12.5672 33.1287V38.5994C12.6545 38.5587 12.7518 38.5361 12.8545 38.5361C13.0043 38.5361 13.1429 38.5844 13.2555 38.6663Z"
        fill="#ff4b14" />
    <path
        d="M1.77132 38.6663V33.1115L6.48791 35.886C6.50067 35.6331 6.65113 35.4165 6.86583 35.3097L2.10596 32.5098L6.69107 29.8127C6.56513 29.6889 6.48703 29.5166 6.48703 29.3261C6.48703 29.2522 6.49878 29.1811 6.5205 29.1144L1.73197 31.9312C1.92452 32.0518 2.05256 32.2658 2.05256 32.5098C2.05256 32.8866 1.74711 33.192 1.37033 33.192C1.26768 33.192 1.17033 33.1693 1.08301 33.1287V38.5994C1.17033 38.5587 1.26768 38.5361 1.37032 38.5361C1.52019 38.5361 1.65876 38.5844 1.77132 38.6663Z"
        fill="#ff4b14" />
    <path
        d="M7.85148 35.9209C7.85148 35.6512 7.69499 35.4181 7.46785 35.3073L12.1724 32.4938C12.1723 32.4991 12.1723 32.5044 12.1723 32.5098C12.1723 32.7799 12.3292 33.0133 12.5568 33.1238L7.85098 35.9473C7.85131 35.9386 7.85148 35.9297 7.85148 35.9209Z"
        fill="#ff4b14" />
    <path fill-rule="evenodd" clip-rule="evenodd"
        d="M8.54002 29.3261C8.54002 30.083 7.9264 30.6966 7.16947 30.6966C6.41255 30.6966 5.79893 30.083 5.79893 29.3261C5.79893 28.5692 6.41255 27.9556 7.16947 27.9556C7.9264 27.9556 8.54002 28.5692 8.54002 29.3261ZM7.16947 30.0083C7.54626 30.0083 7.8517 29.7029 7.8517 29.3261C7.8517 28.9493 7.54626 28.6439 7.16947 28.6439C6.79269 28.6439 6.48725 28.9493 6.48725 29.3261C6.48725 29.7029 6.79269 30.0083 7.16947 30.0083Z"
        fill="#ff4b14" />
    <path fill-rule="evenodd" clip-rule="evenodd"
        d="M2.74108 32.5098C2.74108 33.2668 2.12747 33.8804 1.37054 33.8804C0.613612 33.8804 0 33.2668 0 32.5098C0 31.7529 0.613612 31.1393 1.37054 31.1393C2.12747 31.1393 2.74108 31.7529 2.74108 32.5098ZM1.37054 33.192C1.74732 33.192 2.05276 32.8866 2.05276 32.5098C2.05276 32.133 1.74732 31.8276 1.37054 31.8276C0.993759 31.8276 0.688317 32.133 0.688317 32.5098C0.688317 32.8866 0.993759 33.192 1.37054 33.192Z"
        fill="#ff4b14" />
    <path fill-rule="evenodd" clip-rule="evenodd"
        d="M12.8547 33.8804C13.6116 33.8804 14.2252 33.2668 14.2252 32.5098C14.2252 31.7529 13.6116 31.1393 12.8547 31.1393C12.0978 31.1393 11.4842 31.7529 11.4842 32.5098C11.4842 33.2668 12.0978 33.8804 12.8547 33.8804ZM13.5369 32.5098C13.5369 32.8866 13.2315 33.192 12.8547 33.192C12.4779 33.192 12.1725 32.8866 12.1725 32.5098C12.1725 32.133 12.4779 31.8276 12.8547 31.8276C13.2315 31.8276 13.5369 32.133 13.5369 32.5098Z"
        fill="#ff4b14" />
    <path fill-rule="evenodd" clip-rule="evenodd"
        d="M8.54002 35.9209C8.54002 36.6779 7.9264 37.2915 7.16947 37.2915C6.41255 37.2915 5.79893 36.6779 5.79893 35.9209C5.79893 35.164 6.41255 34.5504 7.16947 34.5504C7.9264 34.5504 8.54002 35.164 8.54002 35.9209ZM7.16947 36.6032C7.54626 36.6032 7.8517 36.2977 7.8517 35.9209C7.8517 35.5442 7.54626 35.2387 7.16947 35.2387C6.79269 35.2387 6.48725 35.5442 6.48725 35.9209C6.48725 36.2977 6.79269 36.6032 7.16947 36.6032Z"
        fill="#ff4b14" />
    <path fill-rule="evenodd" clip-rule="evenodd"
        d="M1.37054 40.5889C2.12747 40.5889 2.74108 39.9753 2.74108 39.2183C2.74108 38.4614 2.12747 37.8478 1.37054 37.8478C0.613612 37.8478 0 38.4614 0 39.2183C0 39.9753 0.613612 40.5889 1.37054 40.5889ZM2.05276 39.2183C2.05276 39.5951 1.74732 39.9006 1.37054 39.9006C0.993759 39.9006 0.688317 39.5951 0.688317 39.2183C0.688317 38.8415 0.993759 38.5361 1.37054 38.5361C1.74732 38.5361 2.05276 38.8415 2.05276 39.2183Z"
        fill="#ff4b14" />
    <path fill-rule="evenodd" clip-rule="evenodd"
        d="M8.54002 42.6295C8.54002 43.3864 7.9264 44 7.16947 44C6.41255 44 5.79893 43.3864 5.79893 42.6295C5.79893 41.8725 6.41255 41.2589 7.16947 41.2589C7.9264 41.2589 8.54002 41.8725 8.54002 42.6295ZM7.16947 43.3117C7.54626 43.3117 7.8517 43.0063 7.8517 42.6295C7.8517 42.2527 7.54626 41.9472 7.16947 41.9472C6.79269 41.9472 6.48725 42.2527 6.48725 42.6295C6.48725 43.0063 6.79269 43.3117 7.16947 43.3117Z"
        fill="#ff4b14" />
    <path fill-rule="evenodd" clip-rule="evenodd"
        d="M12.8547 40.5889C13.6116 40.5889 14.2252 39.9753 14.2252 39.2183C14.2252 38.4614 13.6116 37.8478 12.8547 37.8478C12.0978 37.8478 11.4842 38.4614 11.4842 39.2183C11.4842 39.9753 12.0978 40.5889 12.8547 40.5889ZM13.5369 39.2183C13.5369 39.5951 13.2315 39.9006 12.8547 39.9006C12.4779 39.9006 12.1725 39.5951 12.1725 39.2183C12.1725 38.8415 12.4779 38.5361 12.8547 38.5361C13.2315 38.5361 13.5369 38.8415 13.5369 39.2183Z"
        fill="#ff4b14" />
</svg>
    