<svg width="124" height="108" viewBox="0 0 124 108" fill="none" xmlns="http://www.w3.org/2000/svg">
    <path d="M76.6697 67.6587H69.0273V0H76.6697V32.5798H115.62V0H123.262V67.6587H115.62V40.3953H76.6697V67.6587Z" fill="#ff4b14"/>
    <path fill-rule="evenodd" clip-rule="evenodd" d="M1.47656 67.6587H8.56287V24.4592L1.47656 15.7653V67.6587ZM1.47656 10.9686V0H2.12077L31.392 35.4253L60.6633 0H61.3075V67.6587H54.2212V19.6907L31.8752 46.934H30.9089L10.644 22.228V22.2158L1.47656 10.9686Z" fill="#ff4b14"/>
    <path d="M43.4646 99.8889C43.1604 99.8889 42.8664 99.8786 42.5826 99.858C42.2987 99.8442 41.9979 99.8099 41.6803 99.7549C41.3694 99.7068 41.0179 99.6347 40.6259 99.5385C40.7543 99.298 40.9064 99.085 41.0821 98.8995C41.2646 98.7071 41.4741 98.5629 41.7107 98.4667C41.954 98.3705 42.2277 98.3361 42.5319 98.3636C42.7481 98.3842 42.9137 98.398 43.0286 98.4048C43.1435 98.4048 43.2821 98.4048 43.4443 98.4048C44.0931 98.4048 44.698 98.2399 45.259 97.9102C45.82 97.5804 46.31 97.1269 46.729 96.5498C47.148 95.9727 47.4758 95.3062 47.7124 94.5505C47.9489 93.7878 48.0672 92.9771 48.0672 92.1183C48.0672 90.7923 47.8442 89.6655 47.3981 88.738C46.9588 87.8104 46.2964 87.1062 45.4111 86.6253C44.5257 86.1374 43.4173 85.8935 42.0858 85.8935C41.6803 85.8935 41.2815 85.9073 40.8895 85.9348C40.4975 85.9622 40.1393 85.9966 39.8149 86.0378V99.6415H37.8887V84.8836C38.5307 84.7255 39.2438 84.6053 40.0278 84.5229C40.8118 84.4335 41.4978 84.3889 42.0858 84.3889C43.8025 84.3889 45.259 84.6981 46.4553 85.3164C47.6583 85.9348 48.5707 86.8211 49.1925 87.9753C49.8211 89.1296 50.1354 90.5106 50.1354 92.1183C50.1354 93.2382 49.9596 94.2722 49.6082 95.2203C49.2567 96.1685 48.7701 96.9929 48.1483 97.6937C47.5333 98.3877 46.8236 98.927 46.0193 99.3118C45.2218 99.6965 44.3702 99.8889 43.4646 99.8889Z" fill="#ff4b14"/>
    <path d="M54.7763 99.6415V84.6568H56.6417V99.6415H54.7763Z" fill="#ff4b14"/>
    <path d="M69.1831 99.8889C68.1422 99.8889 67.1622 99.7137 66.243 99.3633C65.3306 99.0129 64.523 98.5045 63.8201 97.838C63.1239 97.1716 62.5765 96.3608 62.1777 95.4058C61.7789 94.4508 61.5796 93.3687 61.5796 92.1595C61.5796 90.9984 61.7789 89.9437 62.1777 88.9956C62.5765 88.0406 63.1239 87.2196 63.8201 86.5325C64.523 85.8454 65.3306 85.3164 66.243 84.9454C67.1622 84.5744 68.1422 84.3889 69.1831 84.3889C69.7643 84.3889 70.3996 84.4542 71.089 84.5847C71.7851 84.7152 72.488 84.9523 73.1977 85.2958L72.6705 86.6356C71.9541 86.3126 71.3087 86.11 70.7342 86.0275C70.1664 85.9382 69.6494 85.8935 69.1831 85.8935C68.4869 85.8935 67.8077 86.0241 67.1453 86.2852C66.483 86.5394 65.8882 86.9276 65.361 87.4497C64.8406 87.965 64.425 88.6143 64.1141 89.3975C63.8032 90.1808 63.6477 91.1014 63.6477 92.1595C63.6477 93.2107 63.8032 94.1279 64.1141 94.9112C64.425 95.6944 64.8406 96.3437 65.361 96.859C65.8882 97.3743 66.483 97.7624 67.1453 98.0235C67.8077 98.2777 68.4869 98.4048 69.1831 98.4048C69.4804 98.4048 69.8218 98.3842 70.207 98.343C70.5922 98.2949 71.0079 98.1987 71.454 98.0544V92.6954H73.3194V98.8789C72.8327 99.14 72.3427 99.3461 71.8493 99.4973C71.3627 99.6415 70.893 99.7412 70.4402 99.7961C69.9873 99.858 69.5683 99.8889 69.1831 99.8889Z" fill="#ff4b14"/>
    <path d="M78.1761 99.6415V84.6568H80.0415V99.6415H78.1761Z" fill="#ff4b14"/>
    <path d="M88.7709 99.6415V86.1409H84.4724V84.6568H95.0362V86.1409H90.7174V99.6415H88.7709Z" fill="#ff4b14"/>
    <path d="M98.4414 99.6415L103.754 84.6568H105.639L110.952 99.6415H108.884L104.768 87.5631L104.626 86.9653L104.484 87.5631L102.213 94.1794L101.99 94.6123L102.233 94.5711H104.97C105.295 94.5711 105.565 94.6398 105.781 94.7772C106.004 94.9146 106.187 95.0967 106.329 95.3234C106.477 95.5501 106.599 95.794 106.694 96.0551H101.584L100.368 99.6415H98.4414Z" fill="#ff4b14"/>
    <path d="M115.889 99.6415V84.6568H117.836V98.1369H124L123.98 99.6415H115.889Z" fill="#ff4b14"/>
    <path d="M14.8768 80.0968C14.8768 80.422 14.7567 80.7191 14.5585 80.9463L23.0657 86.0506C23.0942 85.5724 23.3828 85.1642 23.7919 84.9655L14.7518 79.5414C14.832 79.7097 14.8768 79.898 14.8768 80.0968Z" fill="#ff4b14"/>
    <path d="M23.781 99.9974L14.8752 105.236C14.8407 104.553 14.2759 104.01 13.5842 104.01C12.8926 104.01 12.3278 104.553 12.2933 105.236L3.28231 99.9356C3.64711 99.7071 3.8897 99.3016 3.8897 98.8394C3.8897 98.8192 3.88924 98.7991 3.88832 98.7791L12.8245 104.036V93.6377C13.0377 93.7929 13.3003 93.8845 13.5842 93.8845C13.8682 93.8845 14.1307 93.7929 14.344 93.6378V104.036L23.065 98.9056C23.0892 99.3848 23.3743 99.7951 23.781 99.9974Z" fill="#ff4b14"/>
    <path d="M25.1157 97.7936V87.1748C24.9024 87.33 24.6399 87.4215 24.3559 87.4215C24.1614 87.4215 23.977 87.3786 23.8116 87.3016V97.6667C23.977 97.5897 24.1614 97.5468 24.3559 97.5468C24.6399 97.5468 24.9024 97.6384 25.1157 97.7936Z" fill="#ff4b14"/>
    <path d="M3.35688 97.7936V87.269L12.2933 92.5257C12.3175 92.0465 12.6026 91.6362 13.0093 91.4338L3.9909 86.1289L12.6782 81.0187C12.4396 80.7842 12.2916 80.4578 12.2916 80.0968C12.2916 79.9568 12.3139 79.822 12.3551 79.6958L3.28232 85.0327C3.64712 85.2612 3.88972 85.6667 3.88972 86.1289C3.88972 86.8428 3.311 87.4215 2.59712 87.4215C2.40264 87.4215 2.21819 87.3786 2.05273 87.3016V97.6667C2.21818 97.5897 2.40263 97.5468 2.59711 97.5468C2.88105 97.5468 3.14361 97.6384 3.35688 97.7936Z" fill="#ff4b14"/>
    <path d="M14.8768 92.5919C14.8768 92.0809 14.5803 91.6392 14.15 91.4293L23.0637 86.0986C23.0634 86.1087 23.0633 86.1188 23.0633 86.1289C23.0633 86.6406 23.3606 87.0828 23.7919 87.2923L14.8759 92.6419C14.8765 92.6253 14.8768 92.6086 14.8768 92.5919Z" fill="#ff4b14"/>
    <path fill-rule="evenodd" clip-rule="evenodd" d="M16.1806 80.0967C16.1806 81.5309 15.018 82.6935 13.5839 82.6935C12.1497 82.6935 10.9871 81.5309 10.9871 80.0967C10.9871 78.6626 12.1497 77.5 13.5839 77.5C15.018 77.5 16.1806 78.6626 16.1806 80.0967ZM13.5839 81.3893C14.2978 81.3893 14.8765 80.8106 14.8765 80.0967C14.8765 79.3829 14.2978 78.8041 13.5839 78.8041C12.87 78.8041 12.2913 79.3829 12.2913 80.0967C12.2913 80.8106 12.87 81.3893 13.5839 81.3893Z" fill="#ff4b14"/>
    <path fill-rule="evenodd" clip-rule="evenodd" d="M5.19348 86.1289C5.19348 87.563 4.03088 88.7256 2.59674 88.7256C1.1626 88.7256 0 87.563 0 86.1289C0 84.6947 1.1626 83.5321 2.59674 83.5321C4.03088 83.5321 5.19348 84.6947 5.19348 86.1289ZM2.59674 87.4215C3.31062 87.4215 3.88933 86.8427 3.88933 86.1289C3.88933 85.415 3.31062 84.8363 2.59674 84.8363C1.88286 84.8363 1.30414 85.415 1.30414 86.1289C1.30414 86.8427 1.88286 87.4215 2.59674 87.4215Z" fill="#ff4b14"/>
    <path fill-rule="evenodd" clip-rule="evenodd" d="M24.3556 88.7256C25.7897 88.7256 26.9523 87.563 26.9523 86.1289C26.9523 84.6947 25.7897 83.5321 24.3556 83.5321C22.9214 83.5321 21.7588 84.6947 21.7588 86.1289C21.7588 87.563 22.9214 88.7256 24.3556 88.7256ZM25.6482 86.1289C25.6482 86.8427 25.0694 87.4215 24.3556 87.4215C23.6417 87.4215 23.063 86.8427 23.063 86.1289C23.063 85.415 23.6417 84.8363 24.3556 84.8363C25.0694 84.8363 25.6482 85.415 25.6482 86.1289Z" fill="#ff4b14"/>
    <path fill-rule="evenodd" clip-rule="evenodd" d="M16.1806 92.5918C16.1806 94.026 15.018 95.1886 13.5839 95.1886C12.1497 95.1886 10.9871 94.026 10.9871 92.5918C10.9871 91.1577 12.1497 89.9951 13.5839 89.9951C15.018 89.9951 16.1806 91.1577 16.1806 92.5918ZM13.5839 93.8844C14.2978 93.8844 14.8765 93.3057 14.8765 92.5918C14.8765 91.878 14.2978 91.2992 13.5839 91.2992C12.87 91.2992 12.2913 91.878 12.2913 92.5918C12.2913 93.3057 12.87 93.8844 13.5839 93.8844Z" fill="#ff4b14"/>
    <path fill-rule="evenodd" clip-rule="evenodd" d="M2.59674 101.436C4.03088 101.436 5.19348 100.273 5.19348 98.8394C5.19348 97.4052 4.03088 96.2426 2.59674 96.2426C1.1626 96.2426 0 97.4052 0 98.8394C0 100.273 1.1626 101.436 2.59674 101.436ZM3.88933 98.8394C3.88933 99.5532 3.31062 100.132 2.59674 100.132C1.88286 100.132 1.30414 99.5532 1.30414 98.8394C1.30414 98.1255 1.88286 97.5468 2.59674 97.5468C3.31062 97.5468 3.88933 98.1255 3.88933 98.8394Z" fill="#ff4b14"/>
    <path fill-rule="evenodd" clip-rule="evenodd" d="M16.1806 105.302C16.1806 106.737 15.018 107.899 13.5839 107.899C12.1497 107.899 10.9871 106.737 10.9871 105.302C10.9871 103.868 12.1497 102.706 13.5839 102.706C15.018 102.706 16.1806 103.868 16.1806 105.302ZM13.5839 106.595C14.2978 106.595 14.8765 106.016 14.8765 105.302C14.8765 104.588 14.2978 104.01 13.5839 104.01C12.87 104.01 12.2913 104.588 12.2913 105.302C12.2913 106.016 12.87 106.595 13.5839 106.595Z" fill="#ff4b14"/>
    <path fill-rule="evenodd" clip-rule="evenodd" d="M24.3556 101.436C25.7897 101.436 26.9523 100.273 26.9523 98.8394C26.9523 97.4052 25.7897 96.2426 24.3556 96.2426C22.9214 96.2426 21.7588 97.4052 21.7588 98.8394C21.7588 100.273 22.9214 101.436 24.3556 101.436ZM25.6482 98.8394C25.6482 99.5532 25.0694 100.132 24.3556 100.132C23.6417 100.132 23.063 99.5532 23.063 98.8394C23.063 98.1255 23.6417 97.5468 24.3556 97.5468C25.0694 97.5468 25.6482 98.1255 25.6482 98.8394Z" fill="#ff4b14"/>
    </svg>
    